<?xml version="1.0" encoding="UTF-8"?>
<svg version="1.1" xmlns="http://www.w3.org/2000/svg" width="400" height="400">
<path d="M0 0 C132 0 264 0 400 0 C400 132 400 264 400 400 C268 400 136 400 0 400 C0 268 0 136 0 0 Z " fill="#FCFCFD" transform="translate(0,0)"/>
<path d="M0 0 C40 0 40 0 46 4 C47.72265625 6.4453125 47.72265625 6.4453125 49.0625 9.125 C49.56136719 10.10339844 50.06023437 11.08179687 50.57421875 12.08984375 C51.04472656 13.05019531 51.51523438 14.01054688 52 15 C52.39832031 15.78503906 52.79664063 16.57007812 53.20703125 17.37890625 C54.00853872 18.96315681 54.80105476 20.55197885 55.5859375 22.14453125 C56.68198891 24.35782844 57.79228971 26.56148698 58.9140625 28.76171875 C62.02955895 34.89470762 65.07066317 40.98091813 67.625 47.375 C69.47669748 51.96425687 71.72107665 56.00092412 74.3359375 60.19140625 C77.53548192 65.59157629 80.2350311 71.25462191 82.97558594 76.89794922 C84.00591459 79.01213647 85.05349226 81.11721917 86.1015625 83.22265625 C86.75629984 84.56457216 87.40998721 85.90700099 88.0625 87.25 C88.37372803 87.86963623 88.68495605 88.48927246 89.00561523 89.12768555 C90.14257739 91.50808675 91.00992979 93.45981931 90.9609375 96.125 C89.5816487 98.81629521 87.71831186 100.63902903 85.5625 102.75 C84.75941406 103.54921875 83.95632812 104.3484375 83.12890625 105.171875 C81 107 81 107 79 107 C78.77183594 107.56589844 78.54367188 108.13179688 78.30859375 108.71484375 C76.64681917 111.61674861 74.58443031 113.37386444 72.0625 115.5625 C67.92587532 119.16935634 67.92587532 119.16935634 64 123 C63.53851563 122.06542969 63.07703125 121.13085938 62.6015625 120.16796875 C58.38119166 111.65694246 54.04811195 103.21423296 49.59033203 94.82495117 C47.4615734 90.81125457 45.37750731 86.78047847 43.3503418 82.71435547 C42.9078862 81.8274704 42.4654306 80.94058533 42.00956726 80.02682495 C41.67641006 79.35797272 41.34325287 78.68912048 41 78 C40.99857498 78.79513504 40.99714996 79.59027008 40.99568176 80.40950012 C40.97785938 87.8994163 40.93627008 95.38864306 40.86790943 102.87825489 C40.83360345 106.72889319 40.808524 110.57913327 40.80444336 114.42993164 C40.80016789 118.14558743 40.77177012 121.86034438 40.72656822 125.57571983 C40.71356873 126.99385024 40.70929427 128.41208809 40.71384621 129.83027077 C40.71873356 131.81506534 40.68985315 133.79985651 40.65942383 135.78442383 C40.65276199 136.91471512 40.64610016 138.04500641 40.63923645 139.20954895 C40 142 40 142 37.58280945 143.7664032 C36.30431877 144.37703362 36.30431877 144.37703362 35 145 C33.65612698 146.32270967 32.32303778 147.65645001 31 149 C21.8130345 155.96336876 10.97661456 162.34112848 0 166 C0 111.22 0 56.44 0 0 Z " fill="#491E76" transform="translate(106,71)"/>
<path d="M0 0 C-2.40972511 2.40972511 -4.95412632 3.50946607 -8 5 C-9.62929157 6.62929157 -9.17075442 8.44694096 -9.1875 10.6875 C-9.15782723 14.82388445 -8.62199703 18.14775706 -7 22 C-6.34 22 -5.68 22 -5 22 C-4.67 22.66 -4.34 23.32 -4 24 C3.88332891 28.71777513 11.75929589 31.75301593 21 30 C24.45313542 28.2883165 25.83316875 27.25024688 28 24 C28.83982945 18.84104767 27.10922302 16.03623702 24.2890625 11.9296875 C23.00989632 10.01481449 21.98796967 8.07750631 21 6 C26.98484423 10.58950133 30.68340024 14.69910744 32.9375 22.0625 C33.03062885 26.43955579 31.30653072 29.23618353 28.75 32.6875 C23.3438934 36.74207995 18.56247883 37.52923216 12 37 C9 36 9 36 7 35 C6.608125 36.216875 6.21625 37.43375 5.8125 38.6875 C2.69209317 47.99039512 -0.77973295 56.97875684 -5.375 65.66015625 C-6.81917912 68.62836093 -8.061058 71.59616686 -9.29296875 74.65625 C-11.85470591 80.86618817 -14.95186908 86.62881261 -18.3125 92.4375 C-18.88572998 93.43740967 -19.45895996 94.43731934 -20.04956055 95.4675293 C-21.68976836 98.31760139 -23.34186073 101.16033128 -25 104 C-25.4125 104.70995117 -25.825 105.41990234 -26.25 106.15136719 C-30.08644945 112.71786146 -34.21996094 118.70403729 -39.078125 124.55078125 C-41.03600319 127.04588211 -42.66944868 129.60146531 -44.3125 132.3125 C-49.78616857 141.14301794 -56.74678053 149.00235529 -64.2421875 156.171875 C-67.41637565 159.47303068 -70.1715759 163.13275649 -72.984375 166.7421875 C-75 169 -75 169 -78 170 C-78 170.66 -78 171.32 -78 172 C-79.375 173.625 -79.375 173.625 -81 175 C-81.66 175 -82.32 175 -83 175 C-83.2371875 175.58265625 -83.474375 176.1653125 -83.71875 176.765625 C-85.27860902 179.48586694 -87.0133661 180.8456791 -89.5 182.75 C-90.39332031 183.44351563 -91.28664062 184.13703125 -92.20703125 184.8515625 C-93.12871094 185.56054688 -94.05039063 186.26953125 -95 187 C-96.73259616 188.37067607 -98.46187538 189.74555735 -100.1875 191.125 C-101.32251953 192.02605469 -101.32251953 192.02605469 -102.48046875 192.9453125 C-103.83760092 194.05205905 -105.18864954 195.16767481 -106.49755859 196.33105469 C-111.43825078 200.71020565 -116.74725454 204.3632649 -122.25 208 C-123.56677734 208.88558594 -123.56677734 208.88558594 -124.91015625 209.7890625 C-135.52614679 216.84566529 -146.82705589 222.54997828 -158.25976562 228.14404297 C-159.6429536 228.82438206 -161.01824563 229.52076942 -162.390625 230.22265625 C-178.57017033 238.08948242 -202.32468069 243.88292613 -220 238.9375 C-224.74403886 236.96310232 -229.04772547 234.26702079 -232 230 C-232.6373753 226.55716965 -232.50033277 223.45368596 -232 220 C-231.195625 221.11375 -231.195625 221.11375 -230.375 222.25 C-226.06653109 227.23875347 -221.75451608 229.7218877 -215.2578125 230.203125 C-206.78665095 230.32987555 -199.17849755 229.16463969 -191 227 C-190.36690918 226.83371094 -189.73381836 226.66742188 -189.08154297 226.49609375 C-178.34745121 223.60871664 -168.77191227 219.24411703 -159 214 C-157.989375 213.47148437 -156.97875 212.94296875 -155.9375 212.3984375 C-146.52335102 207.39717086 -137.78201249 201.80742136 -129.5390625 195.04296875 C-125.99581389 192.1920164 -122.31496373 189.54964063 -118.62109375 186.8984375 C-115.54931355 184.67357137 -112.54662883 182.36701131 -109.55859375 180.03125 C-108 179 -108 179 -106 179 C-105.74782715 178.41661865 -105.4956543 177.8332373 -105.23583984 177.23217773 C-103.849831 174.72876429 -102.33648077 173.21183287 -100.2265625 171.28515625 C-99.1128125 170.25551758 -99.1128125 170.25551758 -97.9765625 169.20507812 C-97.20054687 168.49802734 -96.42453125 167.79097656 -95.625 167.0625 C-91.07680888 162.89968414 -86.7794045 158.89150514 -83 154 C-81.7581228 152.88359081 -80.48734476 151.7983473 -79.1875 150.75 C-75.57927568 147.65913137 -72.80184639 144.36923721 -69.96875 140.5703125 C-67.64613837 137.53801398 -65.1750681 134.64641848 -62.6875 131.75 C-54.42238872 122.07311064 -46.43645847 112.14625105 -40.18359375 101.02734375 C-38.7673346 98.60147411 -37.26432061 96.24091134 -35.75 93.875 C-28.66914548 82.79323621 -22.05554908 71.66641422 -16 60 C-15.30583984 58.70835938 -15.30583984 58.70835938 -14.59765625 57.390625 C-10.18787631 48.99372774 -6.99518455 39.98555364 -4 31 C-4.45890625 30.57589844 -4.9178125 30.15179688 -5.390625 29.71484375 C-10.46791775 24.86154921 -15.10425054 20.27591506 -15.4375 12.875 C-14.8472131 7.64674456 -13.35745595 5.39516306 -9.75 1.6875 C-6.30243685 -0.42805011 -3.97387068 -0.31167613 0 0 Z " fill="#4B2279" transform="translate(277,24)"/>
<path d="M0 0 C0.65593165 -0.00085442 1.3118633 -0.00170885 1.98767167 -0.00258917 C4.1895067 -0.00423863 6.39126584 0.00126868 8.59309387 0.00672913 C10.16987099 0.00701114 11.74664825 0.00685299 13.32342529 0.00628662 C17.60824642 0.0059992 21.89303966 0.01188709 26.1778543 0.01886058 C30.65418212 0.02510322 35.13051054 0.02569864 39.60684204 0.02688599 C48.08533088 0.02999661 56.56380686 0.03820638 65.04229003 0.04823548 C74.69392753 0.05940495 84.34556564 0.06490917 93.997208 0.06993091 C113.85315175 0.08038921 133.70908392 0.09798346 153.5650177 0.12025452 C153.5650177 1.77025452 153.5650177 3.42025452 153.5650177 5.12025452 C152.75810234 5.12172108 151.95118698 5.12318764 151.11981964 5.12469864 C131.47230356 5.16177427 111.82496516 5.22079907 92.17758942 5.30415726 C82.6761955 5.34394142 73.17488433 5.37633708 63.67341614 5.39125061 C55.39049338 5.40427035 47.10775275 5.43124324 38.82493258 5.47486758 C34.440506 5.49747517 30.056304 5.51316562 25.67181396 5.51213837 C21.5414368 5.51139134 17.41155594 5.52935911 13.28130722 5.56142235 C11.76888672 5.56991181 10.25641048 5.57167774 8.74397659 5.56605721 C0.77385863 5.54039326 -5.5712796 5.68272186 -12.4349823 10.12025452 C-13.23549011 10.62427795 -14.03599792 11.12830139 -14.86076355 11.64759827 C-19.49847172 15.11387704 -22.76550862 17.89997404 -23.9914999 23.79719734 C-24.4825129 27.47640598 -24.58798498 31.0854273 -24.59320068 34.78916931 C-24.59813866 35.54158594 -24.60307664 36.29400257 -24.60816425 37.06921971 C-24.62346957 39.57955601 -24.63188089 42.08986688 -24.64030457 44.60023499 C-24.64988857 46.40405499 -24.65989896 48.20787277 -24.67030334 50.01168823 C-24.69730184 54.90165861 -24.71833874 59.79163859 -24.73830533 64.68164206 C-24.7601961 69.7945896 -24.78756966 74.90750773 -24.81436157 80.02043152 C-24.86424668 89.69939945 -24.90920101 99.37838375 -24.95238394 109.05738366 C-25.00179207 120.07788878 -25.05669693 131.09836438 -25.11206353 142.11884093 C-25.22581937 164.78595123 -25.33267232 187.45308987 -25.4349823 210.12025452 C-27.4149823 210.12025452 -29.3949823 210.12025452 -31.4349823 210.12025452 C-31.57532767 186.07620328 -31.68103926 162.0322137 -31.74585533 137.98783493 C-31.77675448 126.82285088 -31.81885969 115.65812177 -31.88761902 104.49330139 C-31.94754163 94.75868117 -31.98616008 85.02424565 -31.99951327 75.28944612 C-32.00731525 70.13788367 -32.02556931 64.98684949 -32.06936264 59.83545685 C-32.11030699 54.9795143 -32.12260748 50.12431397 -32.11362839 45.26821518 C-32.11526931 43.49295127 -32.12707382 41.71766068 -32.15021515 39.94254684 C-32.29221716 28.4807405 -31.54627402 18.864573 -23.4247036 9.90174484 C-16.79133431 3.56445292 -9.1515677 -0.00716646 0 0 Z " fill="#C9C3E1" transform="translate(102.43498229980469,36.87974548339844)"/>
<path d="M0 0 C12 0 12 0 14.4375 2 C14.953125 2.99 15.46875 3.98 16 5 C16.85021264 6.29427275 17.70467766 7.58575824 18.5625 8.875 C20.36769867 11.80912956 21.76297079 14.72877132 23.05078125 17.9296875 C26.71001996 26.65230098 26.71001996 26.65230098 33 33 C33.12818115 32.41081787 33.2563623 31.82163574 33.38842773 31.21459961 C34.96403676 25.50907089 38.8375147 20.22088319 41.80664062 15.12158203 C42.92771078 13.12851746 43.95057016 11.11320588 44.953125 9.05859375 C45.57270928 7.8722875 46.1924902 6.68608392 46.8125 5.5 C47.33457031 4.4378125 47.85664062 3.375625 48.39453125 2.28125 C51 0 51 0 63 0 C63 18.15 63 36.3 63 55 C59.37 55 55.74 55 52 55 C51.67 44.11 51.34 33.22 51 22 C46.28758413 29.81170606 46.28758413 29.81170606 41.875 37.75 C41.37613281 38.65878906 40.87726563 39.56757813 40.36328125 40.50390625 C39.54639218 41.99958567 38.74613724 43.50480756 37.98046875 45.02734375 C37.0625 46.6875 37.0625 46.6875 35 49 C31.625 49.9375 31.625 49.9375 28 49 C23.68142227 44.42029897 21.4121446 38.72884341 19 33 C17.02 29.7 15.04 26.4 13 23 C12.67 33.56 12.34 44.12 12 55 C8.04 55 4.08 55 0 55 C0 36.85 0 18.7 0 0 Z " fill="#482173" transform="translate(56,331)"/>
<path d="M0 0 C1.65 0 3.3 0 5 0 C5.08800873 4.45820633 5.14072922 8.91618539 5.1875 13.375 C5.22520508 15.25251953 5.22520508 15.25251953 5.26367188 17.16796875 C5.35700939 29.05294531 3.93578758 37.04655926 -4.4609375 45.73046875 C-12.92910206 53.29970507 -20.24656569 55.15297983 -31.43682861 55.14044189 C-32.27202774 55.14341302 -33.10722686 55.14638414 -33.96773505 55.1494453 C-36.75877372 55.15809807 -39.54976931 55.15963764 -42.34082031 55.16113281 C-44.34515982 55.16576338 -46.34949845 55.17078836 -48.35383606 55.17617798 C-53.79406102 55.18928033 -59.23427364 55.19574263 -64.67451191 55.20018864 C-68.07540616 55.20312265 -71.47629707 55.20722807 -74.87718964 55.21169281 C-85.52387293 55.22536159 -96.17054854 55.23503147 -106.81724 55.2388947 C-119.0961984 55.24337507 -131.37504546 55.26092465 -143.65397 55.2898953 C-153.1531094 55.31152748 -162.6522175 55.32159979 -172.15138125 55.32293582 C-177.82127336 55.32398267 -183.49106071 55.32986523 -189.16092682 55.34775543 C-194.49613597 55.36426278 -199.83116193 55.36637863 -205.16638756 55.35761642 C-207.11984181 55.3568475 -209.07330602 55.36116961 -211.02673531 55.37107468 C-225.05793838 55.43802518 -237.66406541 55.11063907 -248.3125 44.75 C-250.59118756 41.03658323 -251.80075362 37.17010672 -253 33 C-250.75 32.625 -250.75 32.625 -248 33 C-246.60287726 34.95597184 -245.28072371 36.9659094 -244 39 C-238.32995958 45.21875401 -231.32236762 48.81112637 -222.89413452 49.36915588 C-217.75701658 49.57232331 -212.62057087 49.54131069 -207.48046875 49.51757812 C-205.5050912 49.52300463 -203.5297177 49.53013024 -201.55435181 49.53881836 C-196.21136601 49.55699175 -190.86869056 49.55000888 -185.52569962 49.53730202 C-179.92231691 49.52714332 -174.31895997 49.53657565 -168.71557617 49.54284668 C-159.30740613 49.55011472 -149.89936187 49.54055747 -140.49121094 49.52148438 C-129.62909076 49.49971733 -118.76727095 49.50676929 -107.90515804 49.52879 C-98.56302547 49.54696798 -89.22098309 49.54949058 -79.87883854 49.53903532 C-74.30625043 49.5328136 -68.7338033 49.5319284 -63.16122437 49.54518127 C-57.92108542 49.55677403 -52.68133207 49.54865142 -47.44123459 49.52560425 C-45.52326471 49.52033545 -43.60526213 49.52179943 -41.68730545 49.53065491 C-29.01740871 49.5837403 -17.83328071 49.03056391 -8 40 C-0.60167697 31.97203246 -0.6612584 22.41264945 -0.375 12 C-0.31699219 10.26556641 -0.31699219 10.26556641 -0.2578125 8.49609375 C-0.16419668 5.6642152 -0.07846325 2.83233206 0 0 Z " fill="#CAC4E1" transform="translate(327,238)"/>
<path d="M0 0 C3.96 0 7.92 0 12 0 C12.33 6.6 12.66 13.2 13 20 C14.65 18.68 16.3 17.36 18 16 C21.9444666 14.0277667 26.7020912 14.54541349 31 15 C33.70744644 16.0616528 35.60815686 17.29913377 38 19 C38 19.66 38 20.32 38 21 C38.99 21.33 39.98 21.66 41 22 C44.93802019 29.3436274 44.34321596 36.84687199 44.1875 45 C44.17242476 46.36066226 44.15874138 47.72134069 44.14648438 49.08203125 C44.11131243 52.38819432 44.05751156 55.69415007 44 59 C39.71 59 35.42 59 31 59 C30.97421875 57.09734375 30.9484375 55.1946875 30.921875 53.234375 C30.86560098 50.73956017 30.8082535 48.24476939 30.75 45.75 C30.73582031 44.49574219 30.72164063 43.24148438 30.70703125 41.94921875 C30.67480469 40.74394531 30.64257812 39.53867187 30.609375 38.296875 C30.58842773 37.18666992 30.56748047 36.07646484 30.54589844 34.93261719 C29.88419345 31.37787645 28.84446751 30.17105153 26 28 C23.18525393 27.51882987 23.18525393 27.51882987 20.25 27.75 C18.77273438 27.80414063 18.77273438 27.80414063 17.265625 27.859375 C16.51796875 27.90578125 15.7703125 27.9521875 15 28 C13.23349751 31.83362031 12.71028724 34.96861491 12.5859375 39.17578125 C12.52792969 40.91118164 12.52792969 40.91118164 12.46875 42.68164062 C12.4378125 43.87982422 12.406875 45.07800781 12.375 46.3125 C12.31699219 48.1387793 12.31699219 48.1387793 12.2578125 50.00195312 C12.16372295 53.00105742 12.08078009 56.00050771 12 59 C8.04 59 4.08 59 0 59 C0 39.53 0 20.06 0 0 Z " fill="#491F74" transform="translate(307,327)"/>
<path d="M0 0 C4.72586849 3.18617876 8.06130148 7.28452319 10.51171875 12.3984375 C11.07421875 15.3984375 11.07421875 15.3984375 11.07421875 23.3984375 C0.18421875 23.3984375 -10.70578125 23.3984375 -21.92578125 23.3984375 C-18.85561653 28.70826047 -18.85561653 28.70826047 -13.92578125 31.3984375 C-9.41555355 31.97246648 -7.45235285 31.70480643 -3.48828125 29.3984375 C-2.64265625 28.7384375 -1.79703125 28.0784375 -0.92578125 27.3984375 C2.44013741 28.84097407 4.58468954 30.73108477 7.07421875 33.3984375 C5.44972777 37.13398198 3.65964077 38.88948626 -0.1171875 40.62890625 C-7.1636825 42.55958708 -15.65044506 42.79471782 -22.62890625 40.515625 C-28.11872595 37.35164494 -31.24149958 32.44618528 -34.23828125 27.0234375 C-36.00815774 20.26572728 -35.22461389 14.6280238 -32.1171875 8.40234375 C-25.26289149 -3.12635741 -11.64559791 -5.89597596 0 0 Z " fill="#4A2176" transform="translate(241.92578125,344.6015625)"/>
<path d="M0 0 C16.17 0 32.34 0 49 0 C49 3.3 49 6.6 49 10 C43.39 10 37.78 10 32 10 C32 24.85 32 39.7 32 55 C27.38 55 22.76 55 18 55 C18 40.15 18 25.3 18 10 C12.06 10 6.12 10 0 10 C0 6.7 0 3.4 0 0 Z " fill="#4C2377" transform="translate(157,331)"/>
<path d="M0 0 C4.16003177 2.30709185 6.40792505 3.9013155 8.49609375 8.23828125 C8.61984375 9.10453125 8.74359375 9.97078125 8.87109375 10.86328125 C7.63225056 11.59095128 6.37941034 12.2948294 5.12109375 12.98828125 C4.425 13.38273437 3.72890625 13.7771875 3.01171875 14.18359375 C0.87109375 14.86328125 0.87109375 14.86328125 -1.20703125 14.10546875 C-2.85698459 13.03903549 -4.49426601 11.95304141 -6.12890625 10.86328125 C-10.73021156 10.04469697 -14.15065032 10.28431345 -18.19140625 12.67578125 C-21.04024987 17.3625885 -21.09830453 21.51957336 -20.12890625 26.86328125 C-18.41835001 30.24096574 -18.41835001 30.24096574 -15.12890625 31.86328125 C-12.00309089 32.47509564 -9.2484808 32.53302042 -6.12890625 31.86328125 C-3.89912629 29.88426551 -3.89912629 29.88426551 -2.12890625 27.86328125 C1.84625827 27.96520855 4.60094781 29.7143282 7.87109375 31.86328125 C6.63014768 36.82706554 5.23775475 39.14624774 0.87109375 41.86328125 C-6.25808433 44.65903736 -13.70601782 45.114389 -20.87890625 42.30078125 C-26.29252855 39.55571128 -29.8084538 36.01936267 -32.16015625 30.3984375 C-34.89991167 21.96354235 -34.5136326 16.9803164 -30.61328125 9.03515625 C-28.96036766 6.61668268 -27.71851358 6.08317892 -25.12890625 4.86328125 C-24.79890625 3.87328125 -24.46890625 2.88328125 -24.12890625 1.86328125 C-16.98984423 -2.65741221 -7.86882948 -2.85871333 0 0 Z " fill="#4B2277" transform="translate(291.12890625,343.13671875)"/>
<path d="M0 0 C1.46983337 -0.00218285 1.46983337 -0.00218285 2.96936035 -0.00440979 C5.0370583 -0.00275291 7.10476885 0.00878462 9.17236328 0.02954102 C12.332891 0.05849427 15.49174042 0.05014533 18.65234375 0.03710938 C20.66407063 0.04334721 22.67579223 0.0517385 24.6875 0.0625 C26.10174255 0.05809654 26.10174255 0.05809654 27.54455566 0.05360413 C32.42543325 0.12360487 35.92062349 0.2442114 39.84375 3.49609375 C41.26416821 6.33693016 41.15827272 8.35086653 40.84375 11.49609375 C39.51196289 13.65820312 39.51196289 13.65820312 36.84375 15.49609375 C33.17993946 16.10645404 29.54692593 16.05615652 25.83984375 16.02734375 C24.76501236 16.03117065 23.69018097 16.03499756 22.58277893 16.03894043 C20.31241926 16.04166069 18.0420283 16.03429159 15.77172852 16.01757812 C12.29047077 15.99615051 8.81127206 16.01738801 5.33007812 16.04296875 C3.12499543 16.04032591 0.91991402 16.03520183 -1.28515625 16.02734375 C-2.32893936 16.03544067 -3.37272247 16.0435376 -4.44813538 16.05187988 C-5.41601486 16.03927124 -6.38389435 16.0266626 -7.38110352 16.01367188 C-8.2328566 16.0104895 -9.08460968 16.00730713 -9.96217346 16.00402832 C-12.15625 15.49609375 -12.15625 15.49609375 -13.92344666 13.68249512 C-15.7602912 10.4248146 -15.68005129 8.16270277 -15.15625 4.49609375 C-10.82155008 -0.50432411 -6.14895988 -0.07326602 0 0 Z " fill="#22B6FC" transform="translate(331.15625,128.50390625)"/>
<path d="M0 0 C0.81700882 0.0028299 1.63401764 0.00565979 2.4757843 0.00857544 C5.08426584 0.01976709 7.69240355 0.0448696 10.30078125 0.0703125 C12.0696565 0.08034362 13.83853713 0.08946924 15.60742188 0.09765625 C19.94284074 0.11970308 24.2780027 0.1542258 28.61328125 0.1953125 C23.2445483 17.16925663 23.2445483 17.16925663 16.98828125 22.3828125 C11.01865298 23.81994523 4.45012513 24.61971934 -1.1640625 21.80078125 C-3.90747047 19.81916319 -4.8412562 18.22184333 -6.38671875 15.1953125 C-7.02673828 13.98681641 -7.02673828 13.98681641 -7.6796875 12.75390625 C-11.38671875 5.62020746 -11.38671875 5.62020746 -11.38671875 2.1953125 C-7.54999592 -0.36250272 -4.44135888 -0.05775206 0 0 Z " fill="#4A2179" transform="translate(193.38671875,215.8046875)"/>
<path d="M0 0 C2.93269498 -0.31652603 5.64989501 -0.44397569 8.5859375 -0.43359375 C9.43926666 -0.4388356 10.29259583 -0.44407745 11.17178345 -0.44947815 C12.97909456 -0.45590814 14.78644746 -0.45454874 16.59375 -0.44604492 C19.35753234 -0.43755367 22.11923558 -0.46625046 24.8828125 -0.49804688 C26.63802021 -0.49965944 28.39323159 -0.49908031 30.1484375 -0.49609375 C30.97459564 -0.50732773 31.80075378 -0.51856171 32.65194702 -0.53013611 C38.38978791 -0.46059761 38.38978791 -0.46059761 41.5222168 1.90380859 C44.01870746 5.44500616 43.47286351 7.74422837 43 12 C41.76933289 13.72480774 41.76933289 13.72480774 40 15 C37.81697083 15.36076355 37.81697083 15.36076355 35.25317383 15.34057617 C34.29240433 15.34034958 33.33163483 15.34012299 32.3417511 15.33988953 C31.30729355 15.32440567 30.272836 15.30892181 29.20703125 15.29296875 C28.14586594 15.28872391 27.08470062 15.28447906 25.99137878 15.28010559 C22.59816235 15.26329706 19.20553728 15.22564019 15.8125 15.1875 C13.51368044 15.172456 11.21485159 15.15876711 8.91601562 15.14648438 C3.27714158 15.11338645 -2.36138697 15.0631653 -8 15 C-7.04416032 13.06126858 -6.08523808 11.1240567 -5.125 9.1875 C-4.32449219 7.56908203 -4.32449219 7.56908203 -3.5078125 5.91796875 C-2 3 -2 3 0 0 Z " fill="#4C247A" transform="translate(258,129)"/>
<path d="M0 0 C5.4809035 -0.09893328 10.96128645 -0.17149865 16.44287109 -0.21972656 C18.30722101 -0.23983261 20.17150794 -0.2671218 22.03564453 -0.30175781 C24.71662948 -0.35032121 27.39678023 -0.37297838 30.078125 -0.390625 C30.91055725 -0.41127014 31.7429895 -0.43191528 32.60064697 -0.45318604 C38.39401217 -0.45542857 38.39401217 -0.45542857 41.52441406 1.8972168 C44.03560975 5.47579529 43.54539997 7.7049752 43 12 C40.96415106 14.01928905 39.61358892 14.90061736 36.77264404 15.36076355 C35.96434143 15.35410172 35.15603882 15.34743988 34.32324219 15.34057617 C32.94226349 15.34023628 32.94226349 15.34023628 31.53338623 15.33988953 C30.54783752 15.32440567 29.56228882 15.30892181 28.546875 15.29296875 C27.53151672 15.28872391 26.51615845 15.28447906 25.47003174 15.28010559 C22.22975046 15.26332424 18.99009303 15.22567241 15.75 15.1875 C13.55209232 15.17245249 11.35417488 15.1587642 9.15625 15.14648438 C3.77062078 15.11342255 -1.61464503 15.06322836 -7 15 C-6.17790325 11.35684925 -4.76593738 8.51784553 -2.9375 5.25 C-2.11572266 3.77273437 -2.11572266 3.77273437 -1.27734375 2.265625 C-0.64505859 1.14414063 -0.64505859 1.14414063 0 0 Z " fill="#4C2579" transform="translate(274,100)"/>
<path d="M0 0 C13.2 0 26.4 0 40 0 C40 5.28 40 10.56 40 16 C26.8 16 13.6 16 0 16 C0 10.72 0 5.44 0 0 Z " fill="#552E80" transform="translate(256,245)"/>
<path d="M0 0 C13.2 0 26.4 0 40 0 C40 5.28 40 10.56 40 16 C26.8 16 13.6 16 0 16 C0 10.72 0 5.44 0 0 Z " fill="#512A7E" transform="translate(256,216)"/>
<path d="M0 0 C0.76171509 -0.00004028 1.52343018 -0.00008057 2.30822754 -0.00012207 C3.91536734 0.00522875 5.52250685 0.02279328 7.12939453 0.05175781 C9.58577649 0.09361413 12.03941529 0.09282584 14.49609375 0.0859375 C16.05991484 0.09643079 17.62372182 0.10936966 19.1875 0.125 C19.91988892 0.12520142 20.65227783 0.12540283 21.40686035 0.12561035 C25.540242 0.22127366 28.17003946 0.54823748 31.09375 3.59375 C31.66015625 5.75 31.66015625 5.75 31.65625 8.09375 C31.67816406 8.8671875 31.70007813 9.640625 31.72265625 10.4375 C31.09375 12.59375 31.09375 12.59375 29.04101562 14.20141602 C25.41156304 15.9160257 22.24170546 16.04371311 18.30859375 16.02734375 C17.57048965 16.0325856 16.83238556 16.03782745 16.07191467 16.04322815 C14.51792658 16.04962807 12.9638899 16.04833769 11.40991211 16.03979492 C9.03476933 16.03126264 6.66201621 16.06010525 4.28710938 16.09179688 C2.77343822 16.09340858 1.25976282 16.09283194 -0.25390625 16.08984375 C-0.96128433 16.10107773 -1.66866241 16.11231171 -2.3974762 16.12388611 C-5.7934106 16.0759277 -7.61067844 15.81689577 -10.35327148 13.74633789 C-11.90625 11.59375 -11.90625 11.59375 -12.40625 8.65625 C-11.18642497 1.18482171 -6.88341984 -0.15409229 0 0 Z " fill="#25B7FD" transform="translate(339.90625,99.40625)"/>
<path d="M0 0 C12.87 0 25.74 0 39 0 C39 4.95 39 9.9 39 15 C26.13 15 13.26 15 0 15 C0 10.05 0 5.1 0 0 Z " fill="#491F76" transform="translate(256,159)"/>
<path d="M0 0 C1.24072266 -0.01998047 2.48144531 -0.03996094 3.75976562 -0.06054688 C5.54737305 -0.05958008 5.54737305 -0.05958008 7.37109375 -0.05859375 C8.46220459 -0.06044678 9.55331543 -0.0622998 10.67749023 -0.06420898 C14.22569575 0.55283107 15.39708482 1.60940555 17.5625 4.4375 C18.29512602 8.2634359 17.96047553 9.83566172 15.80859375 13.08984375 C11.57317085 17.0990557 5.51190388 16.15591835 0.0625 16.0625 C-1.62939453 16.09150391 -1.62939453 16.09150391 -3.35546875 16.12109375 C-12.53847276 16.06675645 -12.53847276 16.06675645 -15.71875 13.125 C-17.4375 10.4375 -17.4375 10.4375 -17.4375 6.8125 C-14.84728847 -1.92946391 -7.84655845 -0.04469816 0 0 Z " fill="#20B6FD" transform="translate(322.4375,158.5625)"/>
<path d="M0 0 C3.44165321 0.35299007 5.06872538 1.04581692 8 3 C8.6875 6.125 8.6875 6.125 9 9 C9.66 9 10.32 9 11 9 C12.48400777 11.35695352 13.01570001 12.68599981 12.875 15.5 C11.7199402 18.80017085 10.95411485 20.0546073 8 22 C1.19937974 23.17292928 -3.42251696 21.8799882 -9 18 C-9 17.34 -9 16.68 -9 16 C-9.66 16 -10.32 16 -11 16 C-13.09491746 12.59575912 -13.49573145 9.96585158 -13 6 C-11.4375 3.625 -11.4375 3.625 -9 2 C-5.375 1.875 -5.375 1.875 -2 2 C-1.34 1.34 -0.68 0.68 0 0 Z " fill="#EFEDF5" transform="translate(287,27)"/>
<path d="M0 0 C1.11826172 0.00966797 2.23652344 0.01933594 3.38867188 0.02929688 C5.13954102 0.06700195 5.13954102 0.06700195 6.92578125 0.10546875 C8.10462891 0.11900391 9.28347656 0.13253906 10.49804688 0.14648438 C13.41165258 0.1818723 16.32502389 0.23567964 19.23828125 0.29296875 C19.23828125 5.24296875 19.23828125 10.19296875 19.23828125 15.29296875 C15.1337236 15.37368474 11.03074289 15.43333688 6.92578125 15.48046875 C5.17491211 15.51817383 5.17491211 15.51817383 3.38867188 15.55664062 C2.27041016 15.56630859 1.15214844 15.57597656 0 15.5859375 C-1.03165283 15.60164795 -2.06330566 15.6173584 -3.1262207 15.63354492 C-5.76171875 15.29296875 -5.76171875 15.29296875 -7.59692383 13.90942383 C-9.13031239 11.78144947 -9.16276422 10.39751624 -9.13671875 7.79296875 C-9.14445312 7.01953125 -9.1521875 6.24609375 -9.16015625 5.44921875 C-8.19115134 0.20519217 -4.75833434 -0.07246194 0 0 Z " fill="#491E76" transform="translate(275.76171875,187.70703125)"/>
<path d="M0 0 C-0.38086862 1.3376849 -0.78083974 2.66992886 -1.1875 4 C-1.51814453 5.11375 -1.51814453 5.11375 -1.85546875 6.25 C-3.15709126 9.37744794 -4.85127934 12.0285386 -6.67797852 14.87207031 C-8.78595313 18.26507248 -10.55873307 21.82014348 -12.375 25.375 C-15.38089895 31.17065045 -18.54126868 36.6040434 -22.4921875 41.82421875 C-24.10120043 44.03356628 -24.10120043 44.03356628 -25.390625 46.8046875 C-27.28310575 50.56208859 -29.51857375 53.95947146 -31.875 57.4375 C-32.29652344 58.06720703 -32.71804687 58.69691406 -33.15234375 59.34570312 C-36.02537146 63.62010063 -38.99075842 67.8204978 -42 72 C-42.33 71.34 -42.66 70.68 -43 70 C-42.06640625 67.99609375 -42.06640625 67.99609375 -40.5625 65.4375 C-37.32759966 59.73107534 -34.53656572 53.88519277 -31.80493164 47.92749023 C-30.0550882 44.13755328 -28.184688 40.56416242 -26 37 C-25.4108717 35.74128976 -24.84794898 34.4699656 -24.3125 33.1875 C-21.44824459 26.61072893 -18.19567446 20.22566342 -14.93554688 13.83837891 C-14.12983029 12.25512058 -13.33709032 10.66527057 -12.546875 9.07421875 C-9.47812295 3.1406507 -7.13647923 0 0 0 Z " fill="#4E247A" transform="translate(260,71)"/>
<path d="M0 0 C0 5 0 5 -5 15 C-14.57 15 -24.14 15 -34 15 C-32.68 13.02 -31.36 11.04 -30 9 C-29.46503906 8.15695313 -28.93007812 7.31390625 -28.37890625 6.4453125 C-21.12505456 -2.82089805 -10.67594338 -0.8542507 0 0 Z " fill="#4C2179" transform="translate(235,188)"/>
<path d="M0 0 C0.70318359 -0.01160156 1.40636719 -0.02320313 2.13085938 -0.03515625 C6.59185511 -0.01007099 9.58055577 0.52613654 13.0625 3.375 C14.125 6.75 14.125 6.75 14.0625 10.375 C12.29608828 13.17689446 11.03200178 14.89024911 8.0625 16.375 C5.42132311 16.55204592 2.83053404 16.65241548 0.1875 16.6875 C-0.53308594 16.71650391 -1.25367188 16.74550781 -1.99609375 16.77539062 C-5.46570503 16.81692372 -7.53955013 16.65369045 -10.4140625 14.640625 C-12.11273981 12.11438695 -12.47833502 10.82918745 -12.4375 7.8125 C-12.4478125 7.04808594 -12.458125 6.28367188 -12.46875 5.49609375 C-11.9375 3.375 -11.9375 3.375 -10.40234375 1.62109375 C-6.96825046 -0.11500095 -3.75866014 -0.06167355 0 0 Z " fill="#28B7FD" transform="translate(321.9375,215.625)"/>
<path d="M0 0 C7.63204969 4.36117125 12.26429851 8.73970795 15.04370117 17.16308594 C16.02542406 21.10200781 16.2289281 24.41416399 16.1953125 28.46484375 C16.1924826 29.14301651 16.18965271 29.82118927 16.18673706 30.51991272 C16.17565416 32.65929766 16.1505736 34.7982443 16.125 36.9375 C16.11495476 38.39908244 16.10583163 39.86067153 16.09765625 41.32226562 C16.07575425 44.88164979 16.04130866 48.44078203 16 52 C14.35 52 12.7 52 11 52 C10.98541748 51.15816162 10.97083496 50.31632324 10.95581055 49.44897461 C10.89440846 46.2970731 10.82019269 43.14579539 10.73754883 39.99438477 C10.70449066 38.63577457 10.67640039 37.27703334 10.65356445 35.91821289 C10.57005347 25.53470187 10.57005347 25.53470187 7 16 C6.649375 15.29230469 6.29875 14.58460937 5.9375 13.85546875 C4.17682441 10.72293344 3.03668458 9.02445639 0 7 C-0.1875 3.375 -0.1875 3.375 0 0 Z " fill="#CBC5E2" transform="translate(316,42)"/>
<path d="M0 0 C0 4.95 0 9.9 0 15 C-9.24 15 -18.48 15 -28 15 C-25.14142507 12.85606881 -23.19058346 11.49046293 -20.06640625 10.09765625 C-19.33486328 9.76443359 -18.60332031 9.43121094 -17.84960938 9.08789062 C-16.32957942 8.40640837 -14.80874894 7.72670876 -13.28710938 7.04882812 C-9.25245094 5.20715026 -4.00773295 0 0 0 Z " fill="#4B2279" transform="translate(146,245)"/>
<path d="M0 0 C3.8425303 0.72047443 5.45767292 1.57152696 8 4.5625 C8.7470731 8.06528615 8.69957151 11.28681078 6.9375 14.5 C3.92563699 16.15166681 1.41790842 16.44464109 -2 16.5625 C-4.37633793 15.42599056 -6.14441029 14.41808971 -8 12.5625 C-8.50243747 8.2080419 -8.48168936 6.22836471 -5.875 2.625 C-3 0.5625 -3 0.5625 0 0 Z " fill="#29B7FD" transform="translate(312,244.4375)"/>
<path d="M0 0 C5.98484423 4.58950133 9.68340024 8.69910744 11.9375 16.0625 C12.03062885 20.43955579 10.30653072 23.23618353 7.75 26.6875 C2.3438934 30.74207995 -2.43752117 31.52923216 -9 31 C-12 30 -12 30 -14 29 C-14 29.66 -14 30.32 -14 31 C-14.66 31 -15.32 31 -16 31 C-16 28.69 -16 26.38 -16 24 C-14.35451172 24.05220703 -14.35451172 24.05220703 -12.67578125 24.10546875 C-11.22136955 24.13361865 -9.7669412 24.16091752 -8.3125 24.1875 C-7.59126953 24.21263672 -6.87003906 24.23777344 -6.12695312 24.26367188 C-1.52792109 24.32667231 1.37434807 23.88572296 5 21 C7.39251268 17.41123098 7.55967086 16.23750792 7 12 C5.89306949 9.86432366 4.65037748 7.91195317 3.2890625 5.9296875 C2.00989632 4.01481449 0.98796967 2.07750631 0 0 Z " fill="#53287D" transform="translate(298,30)"/>
<path d="M0 0 C7.26 0 14.52 0 22 0 C22 2.97 22 5.94 22 9 C14.74 9 7.48 9 0 9 C0 6.03 0 3.06 0 0 Z " fill="#451B73" transform="translate(131,358)"/>
<path d="M0 0 C1.89881785 0.12826755 3.79677993 0.28288382 5.6875 0.5 C5.08519761 1.87581764 4.48054888 3.25060816 3.875 4.625 C3.37033203 5.77355469 3.37033203 5.77355469 2.85546875 6.9453125 C1.53657174 9.83012402 0.10606455 12.66287091 -1.3125 15.5 C-6.2625 15.5 -11.2125 15.5 -16.3125 15.5 C-15.9825 14.51 -15.6525 13.52 -15.3125 12.5 C-14.6525 12.5 -13.9925 12.5 -13.3125 12.5 C-12.28086449 10.47324705 -11.2996454 8.46826881 -10.4453125 6.359375 C-7.89899377 1.02987068 -5.96479063 -0.02810266 0 0 Z " fill="#4D2279" transform="translate(244.3125,158.5)"/>
<path d="M0 0 C0.86625 0.37125 0.86625 0.37125 1.75 0.75 C1.234375 1.12125 0.71875 1.4925 0.1875 1.875 C-1.57087268 3.7537168 -1.57087268 3.7537168 -1.125 6.75 C-0.24393555 9.77079239 0.25434513 10.92625221 2.75 12.75 C6.64164348 14.04721449 9.64429226 13.88033993 13.75 13.75 C14.41 13.42 15.07 13.09 15.75 12.75 C16.40772428 9.72065509 16.40772428 9.72065509 16.75 6.75 C18.84845357 9.01632986 19.76618762 10.10249514 19.6875 13.25 C18.46274841 16.51600423 17.69888376 17.80805216 14.75 19.75 C7.94937974 20.92292928 3.32748304 19.6299882 -2.25 15.75 C-2.25 15.09 -2.25 14.43 -2.25 13.75 C-2.91 13.75 -3.57 13.75 -4.25 13.75 C-6.34491746 10.34575912 -6.74573145 7.71585158 -6.25 3.75 C-3.29485488 -0.36609499 -3.29485488 -0.36609499 0 0 Z " fill="#572C80" transform="translate(280.25,29.25)"/>
<path d="M0 0 C2.64 0 5.28 0 8 0 C8 4.95 8 9.9 8 15 C3.38 15 -1.24 15 -6 15 C-5.16717288 10.83586441 -4.33920962 8.34463388 -2.4375 4.6875 C-1.98246094 3.80449219 -1.52742188 2.92148438 -1.05859375 2.01171875 C-0.53458984 1.01591797 -0.53458984 1.01591797 0 0 Z " fill="#4B2178" transform="translate(287,71)"/>
<path d="M0 0 C0 0.66 0 1.32 0 2 C0.99 2.33 1.98 2.66 3 3 C5 6 5 6 5 9 C-1.6 9 -8.2 9 -15 9 C-12.83715129 0.34860517 -8.00784476 -0.78508282 0 0 Z " fill="#F7F5F9" transform="translate(235,352)"/>
<path d="M0 0 C1.65 0 3.3 0 5 0 C5 9.24 5 18.48 5 28 C3.35 28 1.7 28 0 28 C0 18.76 0 9.52 0 0 Z " fill="#C8C2E0" transform="translate(327,181)"/>
<path d="M0 0 C2.4375 0.875 2.4375 0.875 5.4375 2.875 C5.83714378 6.0055429 5.95899743 8.00583761 4.3125 10.75 C1.55659116 12.40354531 -0.41325452 12.26865568 -3.5625 11.875 C-5.4375 10.6875 -5.4375 10.6875 -6.5625 8.875 C-7 6.4375 -7 6.4375 -6.5625 3.875 C-4.50294727 0.97637023 -3.634144 -0.17727532 0 0 Z " fill="#50267C" transform="translate(289.5625,27.125)"/>
<path d="M0 0 C2.4375 0.75 2.4375 0.75 4.4375 2.75 C4.77052312 5.8804173 4.91421956 7.92898298 3.3125 10.6875 C1.4375 11.75 1.4375 11.75 -1.625 11.625 C-4.5625 10.75 -4.5625 10.75 -6.5625 7.75 C-6.375 4.6875 -6.375 4.6875 -5.5625 1.75 C-2.5625 -0.25 -2.5625 -0.25 0 0 Z " fill="#542E7E" transform="translate(296.5625,11.25)"/>
<path d="M0 0 C5.98484423 4.58950133 9.68340024 8.69910744 11.9375 16.0625 C12.01823681 19.8571303 11.04420424 21.82795893 9 25 C6.8125 26.875 6.8125 26.875 5 28 C4.75 21.375 4.75 21.375 7 18 C7.83982945 12.84104767 6.10922302 10.03623702 3.2890625 5.9296875 C2.00989632 4.01481449 0.98796967 2.07750631 0 0 Z " fill="#532A81" transform="translate(298,30)"/>
<path d="M0 0 C0.86625 0.37125 0.86625 0.37125 1.75 0.75 C1.24855469 1.14832031 0.74710937 1.54664062 0.23046875 1.95703125 C-1.47742807 3.65350321 -1.47742807 3.65350321 -1.32421875 6.01171875 C-1.19660156 6.81222656 -1.06898438 7.61273438 -0.9375 8.4375 C-0.81761719 9.24574219 -0.69773437 10.05398437 -0.57421875 10.88671875 C-0.46722656 11.50160156 -0.36023438 12.11648437 -0.25 12.75 C-2.6875 12.375 -2.6875 12.375 -5.25 11.75 C-6.67041821 8.90916359 -6.56452272 6.89522722 -6.25 3.75 C-3.29485488 -0.36609499 -3.29485488 -0.36609499 0 0 Z " fill="#481873" transform="translate(280.25,29.25)"/>
<path d="M0 0 C0.33 0 0.66 0 1 0 C1 11.22 1 22.44 1 34 C0.67 34 0.34 34 0 34 C-0.33 24.76 -0.66 15.52 -1 6 C-1.99 6.66 -2.98 7.32 -4 8 C-2.87548273 5.0280615 -1.77706209 2.66559313 0 0 Z " fill="#E7E6EB" transform="translate(107,352)"/>
<path d="M0 0 C0.99 0.33 1.98 0.66 3 1 C2.42000976 5.26029191 -0.12387893 8.35161535 -2.5625 11.75 C-2.98724609 12.35199219 -3.41199219 12.95398438 -3.84960938 13.57421875 C-4.89435522 15.05329714 -5.94646016 16.52717259 -7 18 C-7.33 17.34 -7.66 16.68 -8 16 C-6.85546875 13.57421875 -6.85546875 13.57421875 -5.1875 10.6875 C-3.17595503 7.18521386 -1.41391435 3.7865316 0 0 Z " fill="#643E89" transform="translate(225,125)"/>
<path d="M0 0 C4.9404012 3.78856609 8.60637447 7.17204218 11 13 C10.25 16.4375 10.25 16.4375 9 19 C8.67 19 8.34 19 8 19 C7.90203125 18.41992188 7.8040625 17.83984375 7.703125 17.2421875 C6.69075123 11.95340728 5.26554263 8.38807291 2 4 C1.31338218 2.67683025 0.64246537 1.34516187 0 0 Z " fill="#63338A" transform="translate(298,30)"/>
<path d="M0 0 C-0.33 1.32 -0.66 2.64 -1 4 C-1.556875 3.7525 -2.11375 3.505 -2.6875 3.25 C-5.24050936 2.71646324 -5.24050936 2.71646324 -7.75 4.9375 C-8.86375 5.9584375 -8.86375 5.9584375 -10 7 C-9.8125 5.1875 -9.8125 5.1875 -9 3 C-5.65188866 0.46629412 -4.29875783 0 0 0 Z " fill="#5B3086" transform="translate(260,71)"/>
<path d="M0 0 C0.99 0.33 1.98 0.66 3 1 C2.360625 1.556875 1.72125 2.11375 1.0625 2.6875 C-1.19680987 5.22066561 -1.63149047 6.68341424 -2 10 C-2.66 10 -3.32 10 -4 10 C-3.38461538 3.47692308 -3.38461538 3.47692308 -1.4375 1.0625 C-0.7259375 0.5365625 -0.7259375 0.5365625 0 0 Z " fill="#30BFFE" transform="translate(309,159)"/>
<path d="M0 0 C0.33 0 0.66 0 1 0 C1.33 3.3 1.66 6.6 2 10 C1.01 10 0.02 10 -1 10 C-1.02689216 8.52093108 -1.04634621 7.04172517 -1.0625 5.5625 C-1.07410156 4.73878906 -1.08570313 3.91507812 -1.09765625 3.06640625 C-1 1 -1 1 0 0 Z " fill="#542979" transform="translate(208,359)"/>
<path d="M0 0 C1.5625 1.6875 1.5625 1.6875 3 4 C2.6875 6.75 2.6875 6.75 2 9 C0 7 0 7 -0.125 3.375 C-0.08375 2.26125 -0.0425 1.1475 0 0 Z " fill="#6F4993" transform="translate(297,36)"/>
<path d="M0 0 C2.25 0.25 2.25 0.25 4 1 C2.02 2.32 0.04 3.64 -2 5 C-2.66 4.67 -3.32 4.34 -4 4 C-2.25 1.9375 -2.25 1.9375 0 0 Z " fill="#643F8A" transform="translate(278,29)"/>
</svg>
