<?xml version="1.0" encoding="UTF-8"?>
<svg version="1.1" xmlns="http://www.w3.org/2000/svg" width="1024" height="1024">
<path d="M0 0 C337.92 0 675.84 0 1024 0 C1024 337.92 1024 675.84 1024 1024 C686.08 1024 348.16 1024 0 1024 C0 686.08 0 348.16 0 0 Z " fill="#FDFDFD" transform="translate(0,0)"/>
<path d="M0 0 C54.68627451 0 54.68627451 0 62 6 C63.8459691 8.60659733 65.22741027 11.38314926 66.625 14.25 C67.04322021 15.07628906 67.46144043 15.90257812 67.89233398 16.75390625 C68.7974561 18.54787191 69.69521961 20.34556506 70.58642578 22.14648438 C72.0397448 25.08023095 73.51554511 28.00178486 74.99609375 30.921875 C80.04032811 40.90086145 84.99236975 50.91932204 89.70727539 61.05859375 C94.60690053 71.55477882 99.89640923 81.86486119 105.1875 92.16760254 C107.17132026 96.03601924 109.14281151 99.91065374 111.11279297 103.78613281 C112.13333036 105.78634656 113.15951172 107.78368933 114.19091797 109.77832031 C115.69689743 112.6938209 117.18235466 115.61898113 118.6640625 118.546875 C119.13051178 119.43848328 119.59696106 120.33009155 120.07754517 121.24871826 C120.69972427 122.4921701 120.69972427 122.4921701 121.33447266 123.76074219 C121.70561188 124.48525574 122.0767511 125.20976929 122.45913696 125.95623779 C123 128 123 128 122.18769836 130.15588379 C117.43787094 137.5308487 110.57518463 143.61115368 104.40209961 149.78320312 C102.93116703 151.25634248 101.46845754 152.73734107 100.00585938 154.21875 C99.05517739 155.17236363 98.10402187 156.12550548 97.15234375 157.078125 C96.30663818 157.92793945 95.46093262 158.77775391 94.58959961 159.65332031 C91.85202695 162.13409229 89.11648518 164.03049728 86 166 C77.4025686 150.17819135 69.59462514 133.97928418 61.78956604 117.7571106 C60.17815503 114.41292906 58.54652751 111.08038783 56.88400269 107.76127625 C56.5294998 107.05324199 56.17499691 106.34520773 55.80975151 105.61571789 C55.54253351 105.08253098 55.27531551 104.54934408 55 104 C55.0407666 105.07946899 55.0815332 106.15893799 55.12353516 107.27111816 C55.49407518 117.50781004 55.73467191 127.74067647 55.8523407 137.98348236 C55.91689889 143.24921795 56.02506754 148.5060679 56.23779297 153.76806641 C57.60649765 188.77877182 57.60649765 188.77877182 51.71359253 196.43447876 C46.2604337 201.76213823 40.10294428 204.95604822 33.06199646 207.73225403 C28.26197944 209.7195856 23.97191868 212.46591183 19.5625 215.1875 C17.42718862 216.41366106 15.28162113 217.61783038 13.12939453 218.81396484 C11.59374605 219.66929393 10.06418033 220.53557623 8.53857422 221.40869141 C7.73049316 221.86808105 6.92241211 222.3274707 6.08984375 222.80078125 C5.35499756 223.22141846 4.62015137 223.64205566 3.86303711 224.07543945 C2 225 2 225 0 225 C0 150.75 0 76.5 0 0 Z " fill="#491E76" transform="translate(380,327)"/>
<path d="M0 0 C1.03930664 0.01353516 1.03930664 0.01353516 2.09960938 0.02734375 C3.79572395 0.05073843 5.49165871 0.08660359 7.1875 0.125 C7.1875 0.455 7.1875 0.785 7.1875 1.125 C6.24648438 1.28355469 5.30546875 1.44210937 4.3359375 1.60546875 C-5.31727231 3.31464008 -5.31727231 3.31464008 -12.8125 9.125 C-14.57650202 12.65300403 -14.32920216 16.27376642 -13.8125 20.125 C-10.54063687 29.31373711 -3.33581651 35.250552 5.23046875 39.3984375 C12.36563962 42.04742309 21.46721687 42.43698202 28.7734375 40.40625 C31.91153365 38.95969267 33.88699031 37.46307341 36.1875 34.875 C37.55187254 31.12297551 38.03018426 28.00808908 37.1875 24.125 C34.60765839 18.6480547 31.14880985 13.69574213 27.1875 9.125 C34.56481868 12.48272929 38.99730168 18.46097256 42.3046875 25.7109375 C44.15986538 30.78394604 43.66008478 34.50542609 41.5 39.3125 C38.55763873 44.58635169 35.17481135 46.94787314 29.5 48.875 C22.22773109 50.86918402 15.54313764 50.44306224 8.1875 49.125 C7.99341553 49.67921631 7.79933105 50.23343262 7.59936523 50.80444336 C-1.58817497 76.75825866 -12.8515362 101.93653861 -26.52050781 125.84521484 C-27.7080693 127.94072679 -28.85795041 130.05106135 -29.9921875 132.17578125 C-45.74142993 161.45564491 -66.48951144 189.07845277 -89.21484375 213.31640625 C-91.21540703 215.47942128 -93.14915969 217.66670062 -95.0703125 219.8984375 C-99.10261066 224.52572754 -103.40046443 228.85998739 -107.75 233.1875 C-108.50990234 233.95126953 -109.26980469 234.71503906 -110.05273438 235.50195312 C-114.80980312 240.25089707 -119.71122958 244.75046006 -124.8125 249.125 C-125.86071563 250.05056727 -126.90766779 250.97756814 -127.953125 251.90625 C-152.89730035 273.82386008 -180.77300953 291.99422579 -210.8125 306.125 C-211.43866211 306.42212891 -212.06482422 306.71925781 -212.70996094 307.02539062 C-237.43891293 318.64913765 -270.33610768 330.8120681 -297.75 322.4375 C-305.61461404 319.20112645 -310.0556124 315.78327088 -313.8125 308.125 C-314.1425 307.465 -314.4725 306.805 -314.8125 306.125 C-314.88431821 303.40739892 -314.90549506 300.71640612 -314.875 298 C-314.87048828 297.24589844 -314.86597656 296.49179687 -314.86132812 295.71484375 C-314.84953499 293.85152873 -314.83159942 291.98825445 -314.8125 290.125 C-314.1525 290.125 -313.4925 290.125 -312.8125 290.125 C-312.73773438 290.76566406 -312.66296875 291.40632813 -312.5859375 292.06640625 C-311.59879034 298.5602861 -310.06249243 302.9843156 -304.8125 307.125 C-293.68273058 314.25566976 -278.05596691 311.72729427 -265.6875 309.27734375 C-215.06661926 297.99949205 -164.2661714 261.78306749 -128.5859375 224.8984375 C-126.81943361 223.13193361 -124.97784458 221.54013526 -123.0625 219.9375 C-117.69145633 215.31418986 -113.03955372 210.00990262 -108.29541016 204.76074219 C-106.91796674 203.24133637 -105.52784701 201.73344888 -104.13671875 200.2265625 C-99.2799211 194.95433114 -94.64055101 189.56309224 -90.14453125 183.98046875 C-88.11425153 181.49448136 -86.03339605 179.06340787 -83.92773438 176.64135742 C-56.8195399 145.29144797 -35.92282433 108.06759469 -17.8125 71 C-17.49694153 70.35895325 -17.18138306 69.71790649 -16.85626221 69.05743408 C-12.53732795 60.25805457 -8.91768073 51.42802129 -5.8125 42.125 C-6.87210938 41.2736145 -6.87210938 41.2736145 -7.953125 40.4050293 C-15.12680938 34.54327756 -20.30401527 28.05460174 -22.3125 18.828125 C-22.63778463 13.58291032 -20.74459264 10.24577885 -17.8125 6.125 C-12.32074384 0.91487236 -7.41902886 -0.18458828 0 0 Z " fill="#4A2178" transform="translate(611.8125,263.875)"/>
<path d="M0 0 C1.29785373 -0.00256327 1.29785373 -0.00256327 2.62192672 -0.00517833 C5.49616092 -0.00844991 8.37015714 0.00249174 11.24436951 0.01345825 C13.31463617 0.01402287 15.38490324 0.01370482 17.45516968 0.01257324 C23.05779916 0.01200071 28.66034256 0.023739 34.26295209 0.03772116 C40.12458688 0.05024503 45.98622377 0.05140032 51.84786987 0.05377197 C62.93987008 0.05998187 74.03183075 0.07638607 85.12381357 0.09647095 C97.75497353 0.11884521 110.38613541 0.12982723 123.01731026 0.13986182 C148.99332782 0.16075271 174.96931031 0.19591917 200.94529724 0.24050903 C200.94529724 2.88050903 200.94529724 5.52050903 200.94529724 8.24050903 C199.86045736 8.23921021 198.77561749 8.2379114 197.65790367 8.23657322 C171.22364733 8.20652825 144.78963875 8.21679306 118.35541344 8.26897526 C105.57182408 8.2932838 92.7884714 8.3046423 80.00486755 8.28518677 C68.85863869 8.26825639 57.71274098 8.27595795 46.56655562 8.31285661 C40.66826612 8.33153241 34.77053629 8.33813224 28.8722496 8.31520271 C23.31190051 8.29397692 17.75257275 8.30587419 12.19231224 8.34235382 C10.15992966 8.34999956 8.12746074 8.34590553 6.09513664 8.3286953 C-8.56472535 8.21413905 -19.28113398 9.9556004 -30.61720276 20.05300903 C-36.29776978 26.30650878 -40.16314166 34.07501048 -40.19336796 42.59019089 C-40.20157962 43.89273524 -40.20157962 43.89273524 -40.20995718 45.22159362 C-40.21093529 46.17100648 -40.2119134 47.12041934 -40.21292114 48.09860229 C-40.21785912 49.11065743 -40.2227971 50.12271256 -40.22788471 51.16543603 C-40.2432781 54.56643525 -40.25162535 57.96741556 -40.26002502 61.36843872 C-40.2696021 63.80249702 -40.27961208 66.23655365 -40.2900238 68.67060852 C-40.31148447 73.91600593 -40.32992518 79.16140478 -40.34562874 84.4068222 C-40.36833867 91.99082055 -40.39647994 99.57479108 -40.42594802 107.15876582 C-40.47361015 119.46318227 -40.51687807 131.76761009 -40.55738831 144.072052 C-40.59675025 156.02486049 -40.63817815 167.97765886 -40.68238831 179.93045044 C-40.68511258 180.66718745 -40.68783685 181.40392447 -40.69064368 182.16298684 C-40.70432327 185.85897003 -40.71804352 189.55495307 -40.73178399 193.25093603 C-40.8457271 223.9141061 -40.95246813 254.57729756 -41.05470276 285.24050903 C-43.69470276 285.24050903 -46.33470276 285.24050903 -49.05470276 285.24050903 C-49.14602954 253.83403626 -49.21678083 222.42759873 -49.25896408 191.02102463 C-49.26396667 187.30992481 -49.26914398 183.59882525 -49.27442932 179.88772583 C-49.27547856 179.14893878 -49.2765278 178.41015173 -49.27760884 177.6489772 C-49.29499566 165.69975998 -49.3265238 153.75062004 -49.36331394 141.80144861 C-49.40077142 129.53285568 -49.42294875 117.26430312 -49.43105674 104.99565536 C-49.43653458 97.43031527 -49.45381135 89.86519365 -49.48636863 82.29992083 C-49.51008946 76.49066438 -49.51251049 70.68154671 -49.50713348 64.87225151 C-49.50823148 62.49511117 -49.51615537 60.11796234 -49.53152466 57.74087143 C-49.55152984 54.48639707 -49.54660301 51.23284506 -49.53572083 47.97834778 C-49.54737219 47.04543386 -49.55902356 46.11251994 -49.57102799 45.1513359 C-49.45457426 32.19926362 -43.53576469 21.87494592 -34.92970276 12.55300903 C-25.17776527 3.16225441 -13.19890846 -0.09722374 0 0 Z " fill="#CBC5E1" transform="translate(381.05470275878906,280.7594909667969)"/>
<path d="M0 0 C5.28 0 10.56 0 16 0 C16 25.08 16 50.16 16 76 C10.72 76 5.44 76 0 76 C-0.33 61.15 -0.66 46.3 -1 31 C-5.29336885 38.68631142 -5.29336885 38.68631142 -9.58422852 46.37402344 C-10.76088835 48.47786851 -11.95033759 50.57458577 -13.14892578 52.66601562 C-14.39407421 54.90866229 -15.5693206 57.1914083 -16.67529297 59.50585938 C-18.25719769 62.66317229 -19.65229724 65.35916319 -22 68 C-25.53257842 68.98866844 -28.44006431 68.77358764 -32 68 C-32.32162109 67.4016333 -32.64324219 66.8032666 -32.97460938 66.18676758 C-34.47911105 63.39319128 -35.98953921 60.60285846 -37.5 57.8125 C-38.0053125 56.87212891 -38.510625 55.93175781 -39.03125 54.96289062 C-43.10977887 47.44310301 -47.49782031 40.31604199 -52 33 C-52.33 46.86 -52.66 60.72 -53 75 C-58.28 75 -63.56 75 -69 75 C-69 50.58 -69 26.16 -69 1 C-63.72 1 -58.44 1 -53 1 C-49.89673519 4.67491886 -48.72012056 6.72744247 -47 11 C-45.87915456 13.04514452 -44.73219821 15.07614828 -43.5625 17.09375 C-41.77551891 20.30165659 -39.99325206 23.51215514 -38.2109375 26.72265625 C-34.59023413 33.22237705 -30.8748793 39.64832057 -27 46 C-20.93974888 36.53321021 -15.45427694 26.76888766 -10.01318359 16.93579102 C-8.8717193 14.87837434 -7.71247627 12.83069741 -6.53369141 10.79443359 C-4.97215733 8.09840219 -4.97215733 8.09840219 -4.02490234 5.45947266 C-3.07421875 3.23828125 -3.07421875 3.23828125 0 0 Z " fill="#482173" transform="translate(382,677)"/>
<path d="M0 0 C2.64 0 5.28 0 8 0 C8.04995979 4.37417135 8.08598048 8.74818533 8.10986328 13.12255859 C8.11983431 14.60631204 8.13341605 16.09004629 8.15087891 17.57373047 C8.33828876 33.92248412 6.45043073 48.72208748 -5.4375 61.0625 C-21.06430906 75.22101827 -38.73651568 74.58173062 -58.76660156 74.50170898 C-61.47162992 74.50328904 -64.17663448 74.51084883 -66.88165283 74.51808167 C-73.43777862 74.53194295 -79.9937105 74.52451185 -86.54982689 74.50940608 C-94.19595056 74.49246529 -101.84202702 74.4957662 -109.48816368 74.49950016 C-123.13440071 74.5053653 -136.78054517 74.4912581 -150.42675781 74.46655273 C-163.64944932 74.44261705 -176.87201728 74.43555754 -190.09472656 74.44604492 C-204.5216383 74.45746702 -218.94849305 74.4593697 -233.37540412 74.44494683 C-234.91498041 74.4434211 -236.4545567 74.44190074 -237.994133 74.44038582 C-238.75149048 74.439628 -239.50884797 74.43887019 -240.28915568 74.43808941 C-245.61162524 74.43335805 -250.93406923 74.43518972 -256.25653839 74.43945122 C-262.74475109 74.44438937 -269.23284727 74.43834195 -275.72103336 74.41855692 C-279.02767062 74.40872018 -282.33409569 74.40516158 -285.64074707 74.41144943 C-289.23189811 74.41742121 -292.82253083 74.40486009 -296.41363525 74.38768005 C-297.44885889 74.3936901 -298.48408253 74.39970014 -299.55067658 74.40589231 C-312.48801196 74.2936367 -323.57956004 69.76615713 -333.140625 61.02734375 C-337.65140637 56.10907583 -340.97380605 50.62897701 -342 44 C-336.93436293 43.1266143 -336.93436293 43.1266143 -334 44 C-332.13033426 46.32469282 -330.87183861 48.75030529 -329.48828125 51.390625 C-325.26954611 58.78725249 -317.45619154 62.6582974 -309.55722332 65.03657627 C-304.3136908 66.31841401 -299.1727971 66.28680125 -293.79927063 66.27415466 C-292.69088134 66.27939134 -291.58249206 66.28462802 -290.44051522 66.29002339 C-286.73675525 66.30499184 -283.03313381 66.30572786 -279.3293457 66.30639648 C-276.66948371 66.3140201 -274.00963321 66.32239962 -271.34977722 66.33161926 C-264.13060059 66.35441266 -256.91145346 66.36238368 -249.69224572 66.36744571 C-245.17938505 66.37070917 -240.66653286 66.37723553 -236.15367699 66.3844471 C-223.64356036 66.40400524 -211.13345157 66.42041418 -198.62331867 66.42332363 C-197.82367969 66.4235112 -197.0240407 66.42369877 -196.20017023 66.42389202 C-194.57931689 66.42425826 -192.95846356 66.42462196 -191.33761022 66.42498314 C-190.53308606 66.42516595 -189.72856189 66.42534876 -188.8996582 66.42553711 C-188.09414503 66.42571766 -187.28863186 66.42589821 -186.4587092 66.42608423 C-173.41200908 66.42962448 -160.36547416 66.45664104 -147.3188313 66.494035 C-133.90412923 66.53217429 -120.48950902 66.55148152 -107.07475156 66.55178314 C-99.55083823 66.55236643 -92.02712203 66.56077512 -84.50325966 66.58978081 C-78.09583796 66.61437004 -71.68868531 66.62152703 -65.28122912 66.60653328 C-62.01663313 66.59939497 -58.75267445 66.6028437 -55.48811722 66.62294388 C-39.08318785 66.71776008 -24.73579038 66.77184294 -12 55 C-11.45859375 54.51144531 -10.9171875 54.02289062 -10.359375 53.51953125 C-0.45294288 43.38795295 -0.23230919 29.91435839 -0.1875 16.6875 C-0.16429675 15.06051421 -0.1389196 13.43355791 -0.11132812 11.80664062 C-0.04922051 7.87098315 -0.01630055 3.93610272 0 0 Z " fill="#CAC4E1" transform="translate(678,553)"/>
<path d="M0 0 C5.61 0 11.22 0 17 0 C17 8.91 17 17.82 17 27 C19.31 25.35 21.62 23.7 24 22 C30.92923993 19.69025336 40.5199549 19.76283356 47.2578125 22.828125 C53.01440793 26.70027439 56.98255467 32.3972308 59 39 C59.38297591 42.22614677 59.35134617 45.40733766 59.29296875 48.65234375 C59.28872391 49.55247696 59.28447906 50.45261017 59.28010559 51.38002014 C59.26341816 54.23282786 59.22578497 57.08490863 59.1875 59.9375 C59.1724403 61.88084912 59.15875415 63.82420939 59.14648438 65.76757812 C59.11354726 70.51199549 59.0618344 75.25587483 59 80 C53.39 80 47.78 80 42 80 C41.95101562 77.37546875 41.90203125 74.7509375 41.8515625 72.046875 C41.79753441 69.50173295 41.74023413 66.95668413 41.68261719 64.41162109 C41.64436229 62.6444393 41.6095033 60.87718056 41.578125 59.10986328 C41.53239848 56.56775437 41.47441711 54.02617352 41.4140625 51.484375 C41.40251129 50.69569031 41.39096008 49.90700562 41.37905884 49.09442139 C41.25237946 43.73572119 41.25237946 43.73572119 39 39 C34.55674125 35.94708261 29.16043325 36.35781275 24 37 C20.99802536 38.80118478 19.54833634 39.90332732 18 43 C17.84308093 45.76931368 17.74156866 48.51734107 17.68359375 51.2890625 C17.66281265 52.10748627 17.64203156 52.92591003 17.62062073 53.76913452 C17.55515188 56.38766966 17.49625274 59.00630639 17.4375 61.625 C17.39431224 63.39844807 17.35069786 65.17188581 17.30664062 66.9453125 C17.19866901 71.29677232 17.09957622 75.64830747 17 80 C11.39 80 5.78 80 0 80 C0 53.6 0 27.2 0 0 Z " fill="#4B2175" transform="translate(651,673)"/>
<path d="M0 0 C2.0234375 1.125 2.0234375 1.125 3.875 2.375 C4.50664063 2.7875 5.13828125 3.2 5.7890625 3.625 C11.99911229 8.27593091 15.02779776 14.98619105 16.875 22.375 C16.875 26.005 16.875 29.635 16.875 33.375 C2.355 33.375 -12.165 33.375 -27.125 33.375 C-23.72068216 40.12938825 -23.72068216 40.12938825 -18.125 43.375 C-11.52455049 44.21761058 -4.70343512 44.40386981 0.875 40.375 C1.37 39.385 1.37 39.385 1.875 38.375 C3.875 38.375 3.875 38.375 6.25 40.6875 C7.11625 41.574375 7.9825 42.46125 8.875 43.375 C10.18675986 44.40313611 11.5119893 45.41584432 12.875 46.375 C11.50240684 49.66642237 10.17239691 51.16919953 7.125 53 C6.47015625 53.40476562 5.8153125 53.80953125 5.140625 54.2265625 C-4.06022494 58.89044161 -15.99223503 59.19475391 -25.82421875 56.27734375 C-34.13374647 52.36759106 -38.98643401 47.62005837 -42.5 39.1875 C-45.13815046 31.1405892 -45.38020481 22.51079881 -42.29296875 14.5390625 C-34.33348223 -0.20861487 -15.56944127 -6.51429748 0 0 Z " fill="#4A2075" transform="translate(561.125,695.625)"/>
<path d="M0 0 C22.11 0 44.22 0 67 0 C67 4.62 67 9.24 67 14 C59.08 14 51.16 14 43 14 C43 34.13 43 54.26 43 75 C37.06 75 31.12 75 25 75 C25 54.87 25 34.74 25 14 C16.75 14 8.5 14 0 14 C0 9.38 0 4.76 0 0 Z " fill="#4B2276" transform="translate(449,678)"/>
<path d="M0 0 C4.6026838 2.73343058 7.50010871 5.30881118 9.9140625 10.13671875 C9.9140625 10.79671875 9.9140625 11.45671875 9.9140625 12.13671875 C8.1475968 13.14441395 6.37572427 14.14263589 4.6015625 15.13671875 C3.12236328 15.97203125 3.12236328 15.97203125 1.61328125 16.82421875 C-1.0859375 18.13671875 -1.0859375 18.13671875 -4.0859375 18.13671875 C-5.77356601 16.49128095 -7.4399724 14.82383298 -9.0859375 13.13671875 C-13.44279908 11.68443156 -17.53708855 11.50002139 -22.0859375 12.13671875 C-25.97926627 14.11906537 -28.48962393 17.0956006 -30.0859375 21.13671875 C-30.71571577 26.39463498 -31.25170897 32.15167402 -28.2734375 36.76171875 C-25.73685696 39.51572048 -24.12337119 41.02292617 -20.34375 41.4375 C-19.30992187 41.44136719 -18.27609375 41.44523438 -17.2109375 41.44921875 C-16.18226563 41.46597656 -15.15359375 41.48273437 -14.09375 41.5 C-10.66644284 41.08605251 -8.84102178 40.18623266 -6.0859375 38.13671875 C-5.4259375 37.14671875 -4.7659375 36.15671875 -4.0859375 35.13671875 C0.7415424 36.5496397 4.6302984 38.56646029 8.9140625 41.13671875 C8.27356049 46.46203549 6.10734439 48.26545816 2.10546875 51.55859375 C-5.6874274 57.17059026 -14.73708009 57.95372252 -24.0859375 57.13671875 C-32.22053337 55.19935446 -38.89988311 50.75729017 -43.65625 43.859375 C-48.1000473 36.22874022 -48.88982932 28.90137263 -48.0859375 20.13671875 C-47.15589219 16.85628721 -45.8034798 14.07297918 -44.0859375 11.13671875 C-43.74691406 10.51023437 -43.40789063 9.88375 -43.05859375 9.23828125 C-34.61032945 -4.5314876 -13.63961025 -6.67919059 0 0 Z " fill="#4A2076" transform="translate(632.0859375,696.86328125)"/>
<path d="M0 0 C1.82781258 -0.02893593 1.82781258 -0.02893593 3.69255066 -0.05845642 C5.02980486 -0.07326617 6.36707089 -0.08703919 7.7043457 -0.09985352 C8.7145172 -0.10971126 8.7145172 -0.10971126 9.74509621 -0.11976814 C13.31279016 -0.1523671 16.88045428 -0.17681151 20.44824219 -0.19628906 C23.39432567 -0.21407128 26.3394463 -0.24883705 29.28515625 -0.29882812 C32.84726452 -0.35920585 36.40848329 -0.38978857 39.97107887 -0.39946175 C41.98026428 -0.41212299 43.98919595 -0.45413538 45.99797058 -0.49668884 C52.68783109 -0.48165116 57.18627787 -0.29438391 62.08650208 4.52745056 C63.75536504 7.06409188 64.02677792 9.25563909 63.76293945 12.24389648 C62.74198863 15.76128187 60.79820374 17.66520099 58.19262695 20.20874023 C55.50825247 21.55092748 53.39104433 21.37312395 50.38525391 21.41748047 C49.16671219 21.43677109 47.94817047 21.45606171 46.69270325 21.47593689 C45.35544904 21.49074664 44.01818302 21.50451966 42.6809082 21.51733398 C42.00746054 21.52390581 41.33401287 21.53047764 40.6401577 21.53724861 C37.07246374 21.56984756 33.50479962 21.59429198 29.93701172 21.61376953 C26.99092823 21.63155175 24.04580761 21.66631752 21.10009766 21.71630859 C17.53798938 21.77668631 13.97677062 21.80726903 10.41417503 21.81694221 C8.40498963 21.82960346 6.39605795 21.87161584 4.38728333 21.91416931 C-2.30257719 21.89913162 -6.80102396 21.71186438 -11.70124817 16.89002991 C-13.37011113 14.35338859 -13.64152401 12.16184138 -13.37768555 9.17358398 C-12.35673472 5.6561986 -10.41294984 3.75227948 -7.80737305 1.20874023 C-5.12299856 -0.13344701 -3.00579042 0.04435651 0 0 Z " fill="#24B7FC" transform="translate(675.807373046875,405.791259765625)"/>
<path d="M0 0 C2.40870854 0.05103196 4.81758447 0.09472143 7.2265625 0.13085938 C9.53142302 0.18879614 11.83613565 0.25303214 14.140625 0.32421875 C15.21572327 0.35690353 16.29082153 0.38958832 17.39849854 0.42326355 C23.38114153 0.74702512 27.19828234 1.29384497 31.75 5.3125 C33.48631636 8.78513273 33.35190402 12.52443013 32.75 16.3125 C30.56840855 19.06819447 28.87822506 20.74838747 25.75 22.3125 C23.7483125 22.40394783 21.74351744 22.43001697 19.73974609 22.42602539 C18.47858978 22.42594986 17.21743347 22.42587433 15.9180603 22.42579651 C14.53651897 22.42068949 13.15497804 22.41547349 11.7734375 22.41015625 C10.3638209 22.40829144 8.95420366 22.40686783 7.54458618 22.40586853 C3.83246068 22.40204833 0.12037422 22.39222228 -3.59173584 22.38116455 C-7.37886019 22.37093975 -11.16599083 22.36636862 -14.953125 22.36132812 C-22.38543448 22.35059958 -29.81771177 22.33352911 -37.25 22.3125 C-32.04642054 0.41164689 -20.82234122 -1.09465217 0 0 Z " fill="#4E267C" transform="translate(611.25,404.6875)"/>
<path d="M0 0 C7.31392566 -0.1014521 14.62766974 -0.17148763 21.94213867 -0.21972656 C24.43016338 -0.23983705 26.91814086 -0.26712927 29.40600586 -0.30175781 C32.98302875 -0.35029853 36.55942651 -0.37297495 40.13671875 -0.390625 C41.80416389 -0.42159271 41.80416389 -0.42159271 43.5052948 -0.45318604 C51.23776801 -0.45543083 51.23776801 -0.45543083 55.17895508 1.89941406 C58.04419283 5.20448252 58.33285654 7.57328041 58.29296875 11.9609375 C57.83745033 15.13134567 56.24684343 16.8192402 54 19 C51.27521848 20.36239076 49.13159145 20.11969958 46.08154297 20.11352539 C44.84040741 20.11344986 43.59927185 20.11337433 42.32052612 20.11329651 C40.96107951 20.1081895 39.60163331 20.1029735 38.2421875 20.09765625 C36.85499116 20.09579142 35.46779416 20.09436782 34.08059692 20.09336853 C30.42765488 20.08954848 26.77475252 20.07972255 23.12182617 20.06866455 C19.39502499 20.05843944 15.66821741 20.05386855 11.94140625 20.04882812 C4.62758606 20.03809983 -2.68620141 20.02102954 -10 20 C-8.82847739 16.98002441 -7.59181132 14.08158551 -6.0546875 11.23046875 C-5.70019531 10.56982422 -5.34570312 9.90917969 -4.98046875 9.22851562 C-4.43326172 8.21821289 -4.43326172 8.21821289 -3.875 7.1875 C-3.50246094 6.49462891 -3.12992188 5.80175781 -2.74609375 5.08789062 C-1.83309623 3.39065164 -0.91687284 1.69514862 0 0 Z " fill="#481F76" transform="translate(607,367)"/>
<path d="M0 0 C1.32570511 0.00666183 1.32570511 0.00666183 2.67819214 0.01345825 C3.67907867 0.01360931 4.67996521 0.01376038 5.71118164 0.01391602 C7.33623123 0.02939987 7.33623123 0.02939987 8.99411011 0.04519653 C10.65456863 0.04944138 10.65456863 0.04944138 12.34857178 0.05377197 C15.89458898 0.06499384 19.44035636 0.09010213 22.98629761 0.11550903 C25.38603355 0.12553624 27.78577344 0.13466253 30.18551636 0.14285278 C36.07752911 0.16493971 41.96939552 0.19843697 47.86129761 0.24050903 C46.86197733 5.51502708 44.94139882 9.89355783 42.67379761 14.74050903 C42.29932495 15.58226685 41.92485229 16.42402466 41.53903198 17.29129028 C39.04612435 22.63023243 36.75209125 25.90497453 31.86129761 29.24050903 C28.07728851 30.5018454 24.493448 30.50273736 20.54879761 30.55300903 C19.80178589 30.58201294 19.05477417 30.61101685 18.28512573 30.64089966 C12.21808959 30.7101459 8.87304428 28.97401993 4.32589722 24.84695435 C1.67482886 21.93913141 0.27291072 18.33690406 -1.38870239 14.80300903 C-1.76510864 14.0392395 -2.14151489 13.27546997 -2.52932739 12.48855591 C-2.87995239 11.7479895 -3.23057739 11.0074231 -3.59182739 10.24441528 C-3.91312622 9.57224976 -4.23442505 8.90008423 -4.56546021 8.20755005 C-5.26690965 5.80057468 -5.03300618 4.56370214 -4.13870239 2.24050903 C-2.13870239 0.24050903 -2.13870239 0.24050903 0 0 Z " fill="#492079" transform="translate(488.1387023925781,523.7594909667969)"/>
<path d="M0 0 C17.82 0 35.64 0 54 0 C54 6.93 54 13.86 54 21 C36.18 21 18.36 21 0 21 C0 14.07 0 7.14 0 0 Z " fill="#522B7E" transform="translate(582,563)"/>
<path d="M0 0 C0.92153366 -0.01606293 1.84306732 -0.03212585 2.79252625 -0.04867554 C7.02622877 -0.09304974 11.2597715 -0.13421803 15.49365234 -0.15722656 C17.72552942 -0.17376259 19.95735406 -0.20102124 22.18896484 -0.23925781 C25.40465819 -0.29409651 28.6191067 -0.31591491 31.83520508 -0.33056641 C32.82916794 -0.35323578 33.8231308 -0.37590515 34.84721375 -0.39926147 C39.39931693 -0.38541987 42.65461017 -0.33158592 46.29882812 2.58300781 C48.73543898 5.26802689 49.45444911 6.14914573 49.29223633 9.69287109 C49.00314108 13.92353324 47.85523545 16.27812904 44.66723633 19.19287109 C41.8699292 20.1253068 40.08249965 20.33886981 37.18334961 20.38574219 C36.27876007 20.40180511 35.37417053 20.41786804 34.44216919 20.43441772 C30.31554006 20.47895874 26.18906909 20.51991393 22.06225586 20.54296875 C19.88571492 20.55954387 17.70922875 20.58685415 15.53295898 20.625 C12.39253549 20.67974438 9.25338508 20.70163722 6.11254883 20.71630859 C4.65608444 20.75031265 4.65608444 20.75031265 3.17019653 20.78500366 C-3.61855663 20.76376277 -3.61855663 20.76376277 -7.4230957 17.72265625 C-8.05328613 16.88782715 -8.68347656 16.05299805 -9.33276367 15.19287109 C-9.66276367 14.86287109 -9.99276367 14.53287109 -10.33276367 14.19287109 C-10.62599233 11.26058446 -10.83280614 9.04795227 -10.33276367 6.19287109 C-7.89526367 3.25537109 -7.89526367 3.25537109 -5.33276367 1.19287109 C-3.76138154 -0.37851104 -2.18323902 0.0344663 0 0 Z " fill="#1FB5FD" transform="translate(689.332763671875,366.80712890625)"/>
<path d="M0 0 C17.82 0 35.64 0 54 0 C54 6.6 54 13.2 54 20 C36.18 20 18.36 20 0 20 C0 13.4 0 6.8 0 0 Z " fill="#4C237A" transform="translate(582,524)"/>
<path d="M0 0 C17.49 0 34.98 0 53 0 C53 6.6 53 13.2 53 20 C35.51 20 18.02 20 0 20 C0 13.4 0 6.8 0 0 Z " fill="#491F76" transform="translate(582,446)"/>
<path d="M0 0 C0.76217331 -0.00807175 1.52434662 -0.01614349 2.30961609 -0.02445984 C3.92440518 -0.0382985 5.53922349 -0.04902164 7.15405273 -0.05688477 C9.61694208 -0.07408067 12.07848281 -0.11796382 14.54101562 -0.16210938 C16.11066722 -0.1722381 17.68033022 -0.18075364 19.25 -0.1875 C19.98350174 -0.20500809 20.71700348 -0.22251617 21.47273254 -0.24055481 C25.14357626 -0.22507793 27.1533127 0.12781845 30.26635742 2.13989258 C32.90173246 4.82716846 33.27270342 5.70252184 33.63671875 9.48828125 C33.2698963 13.89015062 32.12777015 15.87401957 29.32421875 19.23828125 C23.7992963 21.07992207 17.63981186 20.54426202 11.84619141 20.58837891 C10.25164196 20.60494481 8.65716697 20.63224382 7.06298828 20.67041016 C4.75644685 20.72529372 2.45163839 20.74706537 0.14453125 20.76171875 C-0.91820511 20.79572281 -0.91820511 20.79572281 -2.00241089 20.83041382 C-5.93761886 20.81369038 -7.52198499 20.36482377 -10.60205078 17.83056641 C-13.61768085 14.06085131 -14.14072777 12.07372501 -13.67578125 7.23828125 C-9.83729397 0.45695372 -7.3880928 0.0737929 0 0 Z " fill="#1FB6FD" transform="translate(662.67578125,445.76171875)"/>
<path d="M0 0 C0.70744354 0.00141495 1.41488708 0.0028299 2.14376831 0.00428772 C4.40578419 0.00989025 6.66770148 0.02244307 8.9296875 0.03515625 C10.46223815 0.04017093 11.99479036 0.04473389 13.52734375 0.04882812 C17.28652697 0.05901009 21.04549674 0.07858482 24.8046875 0.09765625 C24.8046875 6.69765625 24.8046875 13.29765625 24.8046875 20.09765625 C20.19427048 20.23573862 15.59106563 20.35502868 10.98022461 20.42724609 C9.41357071 20.45735226 7.84708447 20.49824855 6.28100586 20.55029297 C4.02415607 20.62339512 1.76953954 20.65716926 -0.48828125 20.68359375 C-1.18430954 20.71456146 -1.88033783 20.74552917 -2.59745789 20.7774353 C-5.40050229 20.77935911 -7.5605605 20.62400958 -9.76271057 18.79792786 C-12.13597166 16.03303431 -13.88745208 13.74894892 -13.7578125 10.03515625 C-13.14371815 5.73649579 -12.2728586 4.08468629 -9.1953125 1.09765625 C-6.23720774 -0.38139613 -3.240597 -0.02425278 0 0 Z " fill="#491F77" transform="translate(610.1953125,484.90234375)"/>
<path d="M0 0 C4.16745865 1.19070247 5.37703222 2.26357671 7.5 6 C7.75 8.8125 7.75 8.8125 7.5 11 C8.098125 11.061875 8.69625 11.12375 9.3125 11.1875 C11.5 12 11.5 12 13.3125 14.125 C14.86286882 17.87852452 14.51035767 20.10290612 13.5 24 C11.45507459 26.96514185 8.92215742 28.03286856 5.5 29 C-1.80163321 30.09885965 -7.45506464 28.11875257 -13.5 24 C-17.36575468 20.35335692 -20.26623004 17.06496798 -20.875 11.6875 C-20.5 8 -20.5 8 -18.3125 5.0625 C-15.23695839 2.80710282 -14.18855487 2.51466383 -10.5 3 C-7.48196207 3.33300788 -7.48196207 3.33300788 -5.75 1.4375 C-3.5 0 -3.5 0 0 0 Z " fill="#F2F2F7" transform="translate(627.5,269)"/>
<path d="M0 0 C-0.61798817 5.12930182 -2.94062309 9.33273622 -5.25 13.875 C-5.68965088 14.74560059 -6.12930176 15.61620117 -6.58227539 16.51318359 C-12.04253683 27.20236356 -17.95801534 37.63100449 -24 48 C-24.45987305 48.79116211 -24.91974609 49.58232422 -25.39355469 50.39746094 C-34.65566338 66.22337683 -45.3282119 81.10482085 -56 96 C-56.33 95.34 -56.66 94.68 -57 94 C-55.78209283 91.2915973 -54.49740488 88.70251703 -53.109375 86.08203125 C-52.69357178 85.28106018 -52.27776855 84.48008911 -51.84936523 83.65484619 C-50.95478024 81.93289047 -50.0567389 80.21272692 -49.15563965 78.49417114 C-46.81612654 74.03086165 -44.50223924 69.55431915 -42.1875 65.078125 C-41.7319574 64.19846573 -41.27641479 63.31880646 -40.80706787 62.41249084 C-37.33145602 55.68502221 -33.97976146 48.91199784 -30.75 42.0625 C-30.3279126 41.16797119 -29.9058252 40.27344238 -29.47094727 39.35180664 C-28.68343568 37.68089189 -27.89637741 36.00976339 -27.10986328 34.33837891 C-24.18254994 28.17080143 -21.10757543 22.07825327 -18 16 C-17.45601562 14.9171875 -16.91203125 13.834375 -16.3515625 12.71875 C-12.49780661 5.2851092 -8.97840523 -0.23627382 0 0 Z " fill="#4C2279" transform="translate(587,328)"/>
<path d="M0 0 C-1 5 -1 5 -8 20 C-20.87 20 -33.74 20 -47 20 C-45.02 17.69 -43.04 15.38 -41 13 C-39.78957031 11.25396484 -39.78957031 11.25396484 -38.5546875 9.47265625 C-28.73149097 -3.62182716 -15.03041518 -1.31164937 0 0 Z " fill="#4A1E78" transform="translate(555,485)"/>
<path d="M0 0 C0.99 -0.02900391 1.98 -0.05800781 3 -0.08789062 C9.07275404 -0.14066188 12.65327733 0.21045775 17.25 4.3125 C18.8047669 7.42203379 18.53644437 9.87516761 18.25 13.3125 C15.17307692 18.85096154 15.17307692 18.85096154 12.25 20.3125 C8.48555311 20.60745558 4.71215053 20.5904968 0.9375 20.625 C-0.63161133 20.66850586 -0.63161133 20.66850586 -2.23242188 20.71289062 C-9.97336828 20.77694683 -9.97336828 20.77694683 -13.91796875 18.41796875 C-16.79461867 15.1119681 -17.08292995 12.74729428 -17.04296875 8.3515625 C-16.58745033 5.18115433 -14.99684343 3.4932598 -12.75 1.3125 C-8.90831726 -0.60834137 -4.22623811 0.0406369 0 0 Z " fill="#22B5FE" transform="translate(671.75,523.6875)"/>
<path d="M0 0 C9.86453051 5.41179104 17.10208851 14.40617124 21 25 C22.70395696 30.85835483 23.27479083 36.01183579 23.1953125 42.09375 C23.1924826 42.92588013 23.18965271 43.75801025 23.18673706 44.61535645 C23.17564286 47.24372431 23.15055925 49.8717371 23.125 52.5 C23.11495626 54.29426587 23.10583286 56.08853715 23.09765625 57.8828125 C23.07573893 62.25534279 23.0412849 66.62761143 23 71 C20.36 71 17.72 71 15 71 C14.98541748 69.89599854 14.97083496 68.79199707 14.95581055 67.65454102 C14.89743343 63.52239075 14.82020607 59.39076316 14.73754883 55.2590332 C14.70448362 53.47754457 14.67639558 51.69595582 14.65356445 49.91430664 C14.61967693 47.33957614 14.56734857 44.7657482 14.51171875 42.19140625 C14.50532883 41.40665421 14.4989389 40.62190216 14.49235535 39.81336975 C14.24050922 30.14231204 10.68660322 21.7764299 5 14 C4.05125 13.34 3.1025 12.68 2.125 12 C0 10 0 10 -0.30859375 7.546875 C-0.31213487 5.01142979 -0.2168808 2.52545648 0 0 Z " fill="#CBC5E3" transform="translate(663,288)"/>
<path d="M0 0 C10.56 0 21.12 0 32 0 C32 4.95 32 9.9 32 15 C21.44 15 10.88 15 0 15 C0 10.05 0 5.1 0 0 Z " fill="#542E7F" transform="translate(413,714)"/>
<path d="M0 0 C0 6.6 0 13.2 0 20 C-12.87 20 -25.74 20 -39 20 C-37.71444696 17.42889392 -36.70762139 17.26023134 -34.08984375 16.15234375 C-33.27177246 15.79841553 -32.45370117 15.4444873 -31.61083984 15.07983398 C-30.7286377 14.70286377 -29.84643555 14.32589355 -28.9375 13.9375 C-21.30926172 10.60950082 -14.01970196 6.97193695 -6.85131836 2.74389648 C-2.17791829 0 -2.17791829 0 0 0 Z " fill="#492078" transform="translate(434,563)"/>
<path d="M0 0 C3.13780801 1.62701156 5.24513472 3.04821334 7.4375 5.8125 C8.31325348 9.218208 7.89136765 11.61280292 7 15 C3.76675351 18.81357279 1.75377496 20.83136779 -3.25 21.3125 C-7.66046321 20.9449614 -9.60030631 19.76719254 -13 17 C-15.51250583 13.23124125 -15.53016086 11.46849866 -15 7 C-11.27665171 0.78519189 -7.10074779 -0.96348437 0 0 Z " fill="#2AB8FD" transform="translate(662,563)"/>
<path d="M0 0 C3.890625 0.4375 3.890625 0.4375 6.75 1 C5.30685798 5.73758743 3.37681771 9.98944133 1.125 14.375 C0.01125 16.56125 -1.1025 18.7475 -2.25 21 C-8.85 21 -15.45 21 -22.25 21 C-11.4254671 -0.6490658 -11.4254671 -0.6490658 0 0 Z " fill="#4B2078" transform="translate(567.25,445)"/>
<path d="M0 0 C3.96 0 7.92 0 12 0 C12 6.93 12 13.86 12 21 C5.4 21 -1.2 21 -8 21 C-5.58866277 13.7659883 -2.97338013 6.99146138 0 0 Z " fill="#50287C" transform="translate(624,327)"/>
<path d="M0 0 C-0.515625 0.680625 -1.03125 1.36125 -1.5625 2.0625 C-3.46054428 5.94111222 -3.17805879 7.87679425 -2 12 C0.18991597 14.58297781 1.96831688 16.48415844 5 18 C6.9753988 18.14779962 8.95678924 18.22118966 10.9375 18.25 C11.99839844 18.27578125 13.05929687 18.3015625 14.15234375 18.328125 C16.98578598 18.2352895 16.98578598 18.2352895 18.8359375 16.68359375 C20.51183832 14.25972378 20.67921254 11.88708713 21 9 C23.60015121 10.92185089 24.05246381 12.18886973 24.9375 15.375 C25 19 25 19 23.375 21.8125 C19.13030876 25.72208404 15.12038315 26.52571022 9.46875 26.375 C2.13399916 25.26086063 -3.4504004 21.28858192 -7.94140625 15.55078125 C-10.37844742 11.98065083 -10.43746831 9.30177169 -10 5 C-7.0256495 1.00587219 -5.05072617 -0.72153231 0 0 Z " fill="#55297E" transform="translate(617,272)"/>
<path d="M0 0 C2.64 0 5.28 0 8 0 C8 12.87 8 25.74 8 39 C5.36 39 2.72 39 0 39 C0 26.13 0 13.26 0 0 Z " fill="#CAC5E1" transform="translate(678,476)"/>
<path d="M0 0 C4.47883666 2.1594391 6.91418379 4.48073155 9 9 C9 9.99 9 10.98 9 12 C-0.24 12 -9.48 12 -19 12 C-17.96418824 5.78512943 -17.49754628 4.83936878 -13 1 C-9.05100663 -0.97449669 -4.30409896 -0.43770498 0 0 Z " fill="#F4F2F7" transform="translate(553,707)"/>
<path d="M0 0 C3.38121991 2.44598887 4.76936783 3.89296559 5.625 8 C4.77618008 12.0743356 3.32274404 13.54405875 0 16 C-3 16.625 -3 16.625 -6 16 C-8.875 13.9375 -8.875 13.9375 -11 11 C-11.63007693 7.00951279 -11.63021887 4.98314143 -9.4375 1.5625 C-6.01685857 -0.63021887 -3.99048721 -0.63007693 0 0 Z " fill="#4E267A" transform="translate(639,247)"/>
<path d="M0 0 C4.07390532 1.33327811 5.42613937 2.35369882 7.4375 6.125 C7.4375 9.75575827 6.84926127 11.54548414 4.75 14.5 C2.4375 16.125 2.4375 16.125 -0.5 16.6875 C-4.64824477 15.92557749 -6.07647551 14.48844489 -8.5625 11.125 C-9.1875 8.125 -9.1875 8.125 -8.5625 5.125 C-5.89616981 1.32749942 -4.69543738 0.16475219 0 0 Z " fill="#4F237B" transform="translate(627.5625,268.875)"/>
<path d="M0 0 C7.37731868 3.35772929 11.80980168 9.33597256 15.1171875 16.5859375 C17.00745112 21.75488846 16.43934159 25.45096602 14.1875 30.3125 C12.65649778 33.29824762 11.9359909 34.04267273 9 36 C9 35.01 9 34.02 9 33 C6.69 32.67 4.38 32.34 2 32 C2.763125 31.443125 3.52625 30.88625 4.3125 30.3125 C8.30390299 26.87803697 9.76319258 24.55240421 10.5625 19.3125 C10.29819635 11.9676407 4.62165624 5.33268027 0 0 Z " fill="#542981" transform="translate(639,273)"/>
<path d="M0 0 C-0.49371094 0.69738281 -0.98742187 1.39476562 -1.49609375 2.11328125 C-3.24849386 5.47697912 -3.2536419 7.43459205 -3.0625 11.1875 C-2.91015625 14.35546875 -2.91015625 14.35546875 -3 17 C-3.66 17.66 -4.32 18.32 -5 19 C-9.88551237 13.01130742 -9.88551237 13.01130742 -10.375 8.6875 C-10 5 -10 5 -7.8125 2.0625 C-4.80004811 -0.14663138 -3.62732988 -0.51818998 0 0 Z " fill="#461473" transform="translate(617,272)"/>
<path d="M0 0 C-0.33 0.99 -0.66 1.98 -1 3 C-1 2.34 -1 1.68 -1 1 C-4.56311404 1.11029647 -8.12521145 1.24082717 -11.6875 1.375 C-12.69490234 1.4059375 -13.70230469 1.436875 -14.74023438 1.46875 C-16.20493164 1.52675781 -16.20493164 1.52675781 -17.69921875 1.5859375 C-18.59471436 1.6173584 -19.49020996 1.6487793 -20.4128418 1.68115234 C-24.78865344 2.22043799 -27.968803 3.54953579 -30.97265625 6.78515625 C-31.47990234 7.31560547 -31.98714844 7.84605469 -32.50976562 8.39257812 C-33.02216797 8.94365234 -33.53457031 9.49472656 -34.0625 10.0625 C-39.79998911 16.22976358 -39.79998911 16.22976358 -44 17 C-42.66221243 15.38057294 -41.30581292 13.77490066 -39.890625 12.22265625 C-37.91275642 10.01510579 -37.91275642 10.01510579 -36.359375 7.30859375 C-27.9750847 -4.2940757 -12.79187568 -0.84174116 0 0 Z " fill="#573183" transform="translate(555,485)"/>
<path d="M0 0 C3.12749407 1.38463944 5.2404985 2.99522423 7.625 5.4375 C8.21539063 6.03433594 8.80578125 6.63117188 9.4140625 7.24609375 C13.03568435 11.25128639 13.19926012 13.71960672 13 19 C10.03542196 17.51771098 9.57254389 15.2835836 8.1875 12.3125 C5.89013405 7.57665225 3.60364532 3.81562446 0 0 Z " fill="#5F2D88" transform="translate(639,273)"/>
<path d="M0 0 C0.721875 0.103125 1.44375 0.20625 2.1875 0.3125 C1.73375 1.055 1.28 1.7975 0.8125 2.5625 C-0.49890796 4.78180578 -1.69530803 6.99217822 -2.8125 9.3125 C-2.8125 8.3225 -2.8125 7.3325 -2.8125 6.3125 C-3.4725 6.3125 -4.1325 6.3125 -4.8125 6.3125 C-5.4725 7.3025 -6.1325 8.2925 -6.8125 9.3125 C-7.625 7.625 -7.625 7.625 -7.8125 5.3125 C-5.38938332 2.17670194 -4.02309723 0.4470108 0 0 Z " fill="#52267C" transform="translate(614.8125,271.6875)"/>
<path d="M0 0 C0.70189453 0.00451172 1.40378906 0.00902344 2.12695312 0.01367188 C3.85550538 0.02543073 5.58401365 0.04336546 7.3125 0.0625 C7.3125 0.3925 7.3125 0.7225 7.3125 1.0625 C4.87835783 1.64633484 2.44283215 2.20490522 0 2.75 C-0.69029297 2.91822266 -1.38058594 3.08644531 -2.09179688 3.25976562 C-4.11328125 3.69921875 -4.11328125 3.69921875 -7.6875 4.0625 C-9.66796875 2.64453125 -9.66796875 2.64453125 -10.6875 1.0625 C-7.06882441 -0.1437252 -3.76243749 -0.04566918 0 0 Z " fill="#562E85" transform="translate(611.6875,263.9375)"/>
<path d="M0 0 C0.66 1.32 1.32 2.64 2 4 C-0.31 7.3 -2.62 10.6 -5 14 C-5.33 13.34 -5.66 12.68 -6 12 C-4.78515625 9.1796875 -4.78515625 9.1796875 -3.0625 5.875 C-2.49660156 4.77929688 -1.93070313 3.68359375 -1.34765625 2.5546875 C-0.90292969 1.71164062 -0.45820312 0.86859375 0 0 Z " fill="#66408A" transform="translate(536,410)"/>
<path d="M0 0 C0.66 0 1.32 0 2 0 C1.38461538 5.53846154 1.38461538 5.53846154 -0.5625 7.875 C-1.036875 8.24625 -1.51125 8.6175 -2 9 C-2.6875 7.3125 -2.6875 7.3125 -3 5 C-1.6875 2.25 -1.6875 2.25 0 0 Z " fill="#461972" transform="translate(540,404)"/>
<path d="M0 0 C0.33 0.99 0.66 1.98 1 3 C0.0409375 3.804375 0.0409375 3.804375 -0.9375 4.625 C-3.38529404 7.44367193 -3.66714612 9.33860732 -4 13 C-4.33 13 -4.66 13 -5 13 C-5.61538462 5.73846154 -5.61538462 5.73846154 -2.5 2 C-1.675 1.34 -0.85 0.68 0 0 Z " fill="#36C2FC" transform="translate(684,368)"/>
<path d="M0 0 C0.66 1.32 1.32 2.64 2 4 C0.02 6.31 -1.96 8.62 -4 11 C-4 7.80389448 -3.45328458 6.58282374 -2 3.8125 C-1.62875 3.09707031 -1.2575 2.38164063 -0.875 1.64453125 C-0.441875 0.83048828 -0.441875 0.83048828 0 0 Z " fill="#532C7A" transform="translate(369,699)"/>
<path d="M0 0 C0.66 0 1.32 0 2 0 C0.44499019 3.81684226 -2.03595495 6.19195732 -5 9 C-5.66 8.67 -6.32 8.34 -7 8 C-5.88200014 6.66079162 -4.75538103 5.32877444 -3.625 4 C-2.68527344 2.88625 -2.68527344 2.88625 -1.7265625 1.75 C-1.15679688 1.1725 -0.58703125 0.595 0 0 Z " fill="#4F277B" transform="translate(528,699)"/>
<path d="M0 0 C0.61875 0.78375 1.2375 1.5675 1.875 2.375 C3.89858661 4.96837647 3.89858661 4.96837647 6 7 C4.02 7.99 2.04 8.98 0 10 C0 6.7 0 3.4 0 0 Z " fill="#4C217A" transform="translate(613,282)"/>
<path d="M0 0 C1.98 0 3.96 0 6 0 C5.34 1.65 4.68 3.3 4 5 C2.35 4.67 0.7 4.34 -1 4 C-0.67 2.68 -0.34 1.36 0 0 Z " fill="#512685" transform="translate(590,369)"/>
<path d="M0 0 C0.7425 0.0825 1.485 0.165 2.25 0.25 C2.58 0.91 2.91 1.57 3.25 2.25 C1.27 2.25 -0.71 2.25 -2.75 2.25 C-3.08 3.24 -3.41 4.23 -3.75 5.25 C-4.74 4.92 -5.73 4.59 -6.75 4.25 C-3.42692308 0.31153846 -3.42692308 0.31153846 0 0 Z " fill="#572E81" transform="translate(626.75,268.75)"/>
<path d="M0 0 C0.99 0.33 1.98 0.66 3 1 C2.34 2.65 1.68 4.3 1 6 C-0.32 5.67 -1.64 5.34 -3 5 C-1.125 1.125 -1.125 1.125 0 0 Z " fill="#512486" transform="translate(570,408)"/>
<path d="M0 0 C-0.99 1.485 -0.99 1.485 -2 3 C-3.65 2.67 -5.3 2.34 -7 2 C-7 1.34 -7 0.68 -7 0 C-4.3333581 -1.33332095 -2.83319697 -0.67102033 0 0 Z " fill="#491C78" transform="translate(604,267)"/>
</svg>
